<svg xmlns="http://www.w3.org/2000/svg" xmlns:xlink="http://www.w3.org/1999/xlink" width="100" zoomAndPan="magnify" viewBox="0 0 75 30.000001" height="40" preserveAspectRatio="xMidYMid meet" version="1.0"><defs><clipPath id="ad84235a0a"><path d="M 20.804688 10.730469 L 29 10.730469 L 29 17.992188 L 20.804688 17.992188 Z M 20.804688 10.730469 " clip-rule="nonzero"/></clipPath><clipPath id="308f3ead7d"><path d="M 30 11 L 54.195312 11 L 54.195312 17.992188 L 30 17.992188 Z M 30 11 " clip-rule="nonzero"/></clipPath></defs><g clip-path="url(#ad84235a0a)"><path fill="#1b0a2d" d="M 24.503906 10.730469 C 22.472656 10.730469 20.828125 12.269531 20.828125 14.171875 C 20.828125 16.074219 22.472656 17.613281 24.503906 17.613281 C 26.535156 17.613281 28.179688 16.074219 28.179688 14.171875 C 28.179688 12.269531 26.535156 10.730469 24.503906 10.730469 Z M 24.832031 16.4375 C 24.824219 16.4375 24.816406 16.4375 24.808594 16.429688 C 24.800781 16.421875 24.800781 16.421875 24.800781 16.414062 L 24.800781 15.457031 C 24.800781 15.449219 24.808594 15.433594 24.816406 15.433594 C 25.320312 15.324219 25.722656 14.953125 25.835938 14.480469 C 25.835938 14.472656 25.851562 14.464844 25.863281 14.464844 L 26.882812 14.464844 C 26.890625 14.464844 26.898438 14.464844 26.898438 14.472656 C 26.90625 14.480469 26.90625 14.488281 26.90625 14.488281 C 26.773438 15.496094 25.917969 16.300781 24.832031 16.4375 Z M 26.890625 13.910156 L 25.871094 13.910156 C 25.863281 13.910156 25.84375 13.902344 25.84375 13.894531 C 25.699219 13.3125 25.144531 12.902344 24.511719 12.902344 C 23.757812 12.902344 23.140625 13.476562 23.140625 14.1875 C 23.140625 14.789062 23.574219 15.300781 24.199219 15.433594 C 24.210938 15.433594 24.21875 15.449219 24.21875 15.457031 L 24.21875 16.414062 C 24.21875 16.421875 24.21875 16.429688 24.210938 16.429688 C 24.199219 16.4375 24.199219 16.4375 24.191406 16.4375 C 22.992188 16.285156 22.085938 15.316406 22.085938 14.1875 C 22.085938 12.933594 23.179688 11.914062 24.523438 11.914062 C 25.722656 11.90625 26.75 12.75 26.914062 13.871094 C 26.914062 13.871094 26.914062 13.878906 26.914062 13.878906 C 26.921875 13.894531 26.90625 13.910156 26.890625 13.910156 Z M 26.890625 13.910156 " fill-opacity="1" fill-rule="nonzero"/></g><g clip-path="url(#308f3ead7d)"><path fill="#1b0a2d" d="M 30.300781 14.179688 C 30.300781 13.863281 30.367188 13.554688 30.5 13.265625 C 30.628906 12.972656 30.804688 12.726562 31.023438 12.515625 C 31.246094 12.300781 31.519531 12.136719 31.832031 12.011719 C 32.144531 11.882812 32.480469 11.820312 32.835938 11.820312 C 33.1875 11.820312 33.515625 11.882812 33.828125 12.011719 C 34.140625 12.136719 34.414062 12.308594 34.644531 12.539062 L 34.109375 13.105469 C 33.78125 12.742188 33.351562 12.5625 32.835938 12.5625 C 32.523438 12.5625 32.242188 12.632812 31.988281 12.785156 C 31.730469 12.933594 31.527344 13.128906 31.378906 13.375 C 31.230469 13.621094 31.15625 13.894531 31.15625 14.179688 C 31.15625 14.472656 31.230469 14.738281 31.378906 14.984375 C 31.527344 15.230469 31.730469 15.425781 31.988281 15.566406 C 32.242188 15.710938 32.53125 15.78125 32.835938 15.78125 C 33.054688 15.78125 33.277344 15.734375 33.5 15.640625 C 33.722656 15.542969 33.910156 15.425781 34.066406 15.277344 L 34.570312 15.835938 C 34.332031 16.050781 34.066406 16.214844 33.769531 16.332031 C 33.476562 16.453125 33.164062 16.515625 32.824219 16.515625 C 32.367188 16.515625 31.945312 16.414062 31.558594 16.207031 C 31.171875 16.003906 30.859375 15.71875 30.628906 15.363281 C 30.417969 15.007812 30.300781 14.613281 30.300781 14.179688 Z M 35.136719 16.445312 L 35.136719 11.90625 L 35.941406 11.90625 L 35.941406 13.746094 C 36.023438 13.691406 36.089844 13.644531 36.140625 13.613281 C 36.195312 13.582031 36.277344 13.546875 36.394531 13.515625 C 36.507812 13.484375 36.632812 13.46875 36.765625 13.46875 C 36.9375 13.46875 37.101562 13.492188 37.25 13.539062 C 37.398438 13.589844 37.527344 13.667969 37.652344 13.761719 C 37.777344 13.863281 37.867188 14 37.933594 14.164062 C 37.996094 14.328125 38.03125 14.527344 38.03125 14.746094 L 38.03125 16.429688 L 37.222656 16.429688 L 37.222656 14.890625 C 37.222656 14.433594 37.011719 14.203125 36.582031 14.203125 C 36.15625 14.203125 35.941406 14.433594 35.941406 14.882812 L 35.941406 16.445312 Z M 38.730469 12.910156 C 38.628906 12.816406 38.582031 12.703125 38.582031 12.570312 C 38.582031 12.4375 38.628906 12.324219 38.730469 12.230469 C 38.828125 12.144531 38.953125 12.097656 39.089844 12.097656 C 39.230469 12.097656 39.355469 12.144531 39.453125 12.230469 C 39.550781 12.316406 39.59375 12.4375 39.59375 12.570312 C 39.59375 12.703125 39.542969 12.824219 39.453125 12.910156 C 39.363281 12.996094 39.238281 13.042969 39.089844 13.042969 C 38.953125 13.042969 38.828125 12.996094 38.730469 12.910156 Z M 38.6875 16.445312 L 38.6875 13.523438 L 39.492188 13.523438 L 39.492188 16.4375 L 38.6875 16.4375 Z M 40.21875 17.992188 L 40.21875 13.523438 L 41.023438 13.523438 L 41.023438 13.738281 C 41.261719 13.554688 41.550781 13.46875 41.886719 13.46875 C 42.347656 13.46875 42.734375 13.621094 43.054688 13.910156 C 43.375 14.203125 43.53125 14.566406 43.53125 14.992188 C 43.53125 15.269531 43.457031 15.519531 43.308594 15.757812 C 43.160156 15.996094 42.964844 16.175781 42.707031 16.308594 C 42.453125 16.445312 42.183594 16.515625 41.878906 16.515625 C 41.542969 16.515625 41.253906 16.429688 41.015625 16.246094 L 41.015625 17.984375 L 40.21875 17.984375 Z M 41.023438 15.03125 C 41.03125 15.246094 41.121094 15.417969 41.285156 15.566406 C 41.449219 15.71875 41.65625 15.796875 41.886719 15.796875 C 42.125 15.796875 42.320312 15.71875 42.496094 15.558594 C 42.660156 15.402344 42.75 15.214844 42.75 15 C 42.75 14.789062 42.667969 14.597656 42.496094 14.441406 C 42.332031 14.28125 42.125 14.203125 41.886719 14.203125 C 41.65625 14.203125 41.457031 14.28125 41.285156 14.433594 C 41.121094 14.582031 41.03125 14.761719 41.023438 14.96875 Z M 43.992188 17.992188 L 43.992188 13.523438 L 44.796875 13.523438 L 44.796875 13.738281 C 45.035156 13.554688 45.324219 13.46875 45.660156 13.46875 C 46.121094 13.46875 46.507812 13.621094 46.828125 13.910156 C 47.148438 14.203125 47.304688 14.566406 47.304688 14.992188 C 47.304688 15.269531 47.230469 15.519531 47.082031 15.757812 C 46.933594 15.996094 46.738281 16.175781 46.484375 16.308594 C 46.226562 16.445312 45.957031 16.515625 45.652344 16.515625 C 45.316406 16.515625 45.027344 16.429688 44.789062 16.246094 L 44.789062 17.984375 L 43.992188 17.984375 Z M 44.796875 15.03125 C 44.804688 15.246094 44.894531 15.417969 45.058594 15.566406 C 45.222656 15.71875 45.429688 15.796875 45.660156 15.796875 C 45.898438 15.796875 46.097656 15.71875 46.269531 15.558594 C 46.433594 15.402344 46.523438 15.214844 46.523438 15 C 46.523438 14.789062 46.441406 14.597656 46.269531 14.441406 C 46.105469 14.28125 45.898438 14.203125 45.660156 14.203125 C 45.429688 14.203125 45.234375 14.28125 45.058594 14.433594 C 44.894531 14.582031 44.804688 14.761719 44.796875 14.96875 Z M 47.617188 15.015625 C 47.617188 14.8125 47.660156 14.613281 47.730469 14.425781 C 47.804688 14.234375 47.914062 14.078125 48.054688 13.933594 C 48.191406 13.792969 48.355469 13.683594 48.5625 13.605469 C 48.769531 13.523438 48.992188 13.476562 49.230469 13.476562 C 49.523438 13.476562 49.796875 13.546875 50.035156 13.691406 C 50.273438 13.832031 50.460938 14.015625 50.59375 14.242188 C 50.726562 14.472656 50.789062 14.722656 50.789062 15 C 50.789062 15.085938 50.78125 15.164062 50.773438 15.238281 L 48.40625 15.238281 C 48.457031 15.417969 48.554688 15.566406 48.703125 15.671875 C 48.859375 15.78125 49.046875 15.835938 49.269531 15.835938 C 49.417969 15.835938 49.558594 15.8125 49.699219 15.757812 C 49.835938 15.703125 49.945312 15.625 50.035156 15.511719 L 50.585938 15.921875 C 50.445312 16.113281 50.257812 16.253906 50.027344 16.363281 C 49.796875 16.46875 49.542969 16.523438 49.277344 16.523438 C 48.972656 16.523438 48.695312 16.460938 48.4375 16.324219 C 48.183594 16.191406 47.988281 16.011719 47.839844 15.78125 C 47.691406 15.542969 47.617188 15.292969 47.617188 15.015625 Z M 48.429688 14.683594 L 49.984375 14.683594 C 49.960938 14.535156 49.878906 14.417969 49.730469 14.3125 C 49.582031 14.210938 49.417969 14.164062 49.21875 14.164062 C 49.03125 14.164062 48.875 14.210938 48.734375 14.304688 C 48.59375 14.402344 48.488281 14.527344 48.429688 14.683594 Z M 51.292969 16.445312 L 51.292969 13.523438 L 52.097656 13.523438 L 52.097656 13.738281 C 52.246094 13.636719 52.410156 13.566406 52.582031 13.523438 C 52.757812 13.484375 52.996094 13.46875 53.296875 13.46875 L 53.296875 14.195312 C 53.09375 14.195312 52.921875 14.203125 52.78125 14.226562 C 52.640625 14.25 52.515625 14.28125 52.433594 14.320312 C 52.34375 14.359375 52.277344 14.417969 52.230469 14.480469 C 52.179688 14.550781 52.148438 14.621094 52.132812 14.691406 C 52.113281 14.761719 52.105469 14.859375 52.105469 14.96875 L 52.105469 16.4375 L 51.292969 16.4375 Z M 53.296875 12.316406 C 53.296875 12.261719 53.308594 12.207031 53.332031 12.160156 C 53.355469 12.113281 53.390625 12.066406 53.421875 12.035156 C 53.453125 12.003906 53.503906 11.972656 53.5625 11.945312 C 53.621094 11.921875 53.667969 11.914062 53.734375 11.914062 C 53.800781 11.914062 53.847656 11.921875 53.90625 11.945312 C 53.964844 11.972656 54.003906 11.996094 54.046875 12.035156 C 54.089844 12.074219 54.113281 12.113281 54.136719 12.167969 C 54.160156 12.214844 54.171875 12.269531 54.171875 12.324219 C 54.171875 12.382812 54.160156 12.4375 54.136719 12.484375 C 54.113281 12.53125 54.078125 12.578125 54.046875 12.617188 C 54.003906 12.65625 53.964844 12.679688 53.90625 12.703125 C 53.847656 12.726562 53.800781 12.734375 53.734375 12.734375 C 53.652344 12.734375 53.585938 12.71875 53.511719 12.679688 C 53.445312 12.640625 53.390625 12.59375 53.355469 12.53125 C 53.316406 12.460938 53.296875 12.390625 53.296875 12.316406 Z M 53.378906 12.316406 C 53.378906 12.367188 53.390625 12.40625 53.40625 12.445312 C 53.421875 12.484375 53.445312 12.515625 53.480469 12.546875 C 53.511719 12.578125 53.546875 12.601562 53.59375 12.617188 C 53.636719 12.632812 53.683594 12.640625 53.734375 12.640625 C 53.800781 12.640625 53.859375 12.625 53.914062 12.59375 C 53.972656 12.5625 54.015625 12.523438 54.046875 12.476562 C 54.078125 12.429688 54.097656 12.375 54.097656 12.308594 C 54.097656 12.246094 54.078125 12.191406 54.046875 12.144531 C 54.015625 12.097656 53.972656 12.050781 53.914062 12.019531 C 53.859375 11.988281 53.800781 11.972656 53.734375 11.972656 C 53.667969 11.972656 53.609375 11.988281 53.554688 12.019531 C 53.496094 12.050781 53.453125 12.089844 53.421875 12.144531 C 53.398438 12.199219 53.378906 12.253906 53.378906 12.316406 Z M 53.5625 12.546875 L 53.5625 12.082031 L 53.710938 12.082031 C 53.726562 12.082031 53.742188 12.082031 53.757812 12.082031 C 53.777344 12.082031 53.785156 12.082031 53.800781 12.089844 C 53.816406 12.089844 53.832031 12.097656 53.839844 12.097656 C 53.847656 12.097656 53.867188 12.105469 53.875 12.113281 C 53.882812 12.121094 53.898438 12.128906 53.898438 12.136719 C 53.90625 12.144531 53.914062 12.160156 53.914062 12.167969 C 53.921875 12.183594 53.921875 12.199219 53.921875 12.214844 C 53.921875 12.285156 53.882812 12.332031 53.800781 12.359375 L 53.921875 12.554688 L 53.824219 12.554688 L 53.710938 12.367188 L 53.636719 12.367188 L 53.636719 12.546875 Z M 53.644531 12.285156 L 53.734375 12.285156 C 53.75 12.285156 53.765625 12.285156 53.785156 12.285156 C 53.800781 12.285156 53.808594 12.277344 53.816406 12.277344 C 53.824219 12.269531 53.832031 12.269531 53.839844 12.253906 C 53.847656 12.246094 53.847656 12.230469 53.847656 12.214844 C 53.847656 12.191406 53.839844 12.167969 53.816406 12.160156 C 53.800781 12.152344 53.765625 12.144531 53.726562 12.144531 L 53.636719 12.144531 L 53.636719 12.285156 Z M 53.644531 12.285156 " fill-opacity="1" fill-rule="nonzero"/></g></svg>