<svg xmlns="http://www.w3.org/2000/svg" xmlns:xlink="http://www.w3.org/1999/xlink" width="100" zoomAndPan="magnify" viewBox="0 0 75 30.000001" height="40" preserveAspectRatio="xMidYMid meet" version="1.0"><defs><clipPath id="0683ed2362"><path d="M 32 13 L 35 13 L 35 16.980469 L 32 16.980469 Z M 32 13 " clip-rule="nonzero"/></clipPath><clipPath id="29af14941b"><path d="M 38 13 L 41 13 L 41 16.980469 L 38 16.980469 Z M 38 13 " clip-rule="nonzero"/></clipPath><clipPath id="c09e9b883e"><path d="M 46 13 L 50 13 L 50 16.980469 L 46 16.980469 Z M 46 13 " clip-rule="nonzero"/></clipPath><clipPath id="581700d2b2"><path d="M 51 13 L 54.195312 13 L 54.195312 16.980469 L 51 16.980469 Z M 51 13 " clip-rule="nonzero"/></clipPath><clipPath id="55f2869b5b"><path d="M 34 13 L 37 13 L 37 16.980469 L 34 16.980469 Z M 34 13 " clip-rule="nonzero"/></clipPath><clipPath id="1d326e61f4"><path d="M 36 13 L 39 13 L 39 16.980469 L 36 16.980469 Z M 36 13 " clip-rule="nonzero"/></clipPath><clipPath id="b7bdaf4c52"><path d="M 20.804688 12 L 26 12 L 26 16.980469 L 20.804688 16.980469 Z M 20.804688 12 " clip-rule="nonzero"/></clipPath><clipPath id="2f0c6bec33"><path d="M 22 12 L 28 12 L 28 16.980469 L 22 16.980469 Z M 22 12 " clip-rule="nonzero"/></clipPath><clipPath id="ec5d3dd573"><path d="M 21 11.902344 L 27 11.902344 L 27 16.980469 L 21 16.980469 Z M 21 11.902344 " clip-rule="nonzero"/></clipPath><clipPath id="7d9e5886ae"><path d="M 22 11.902344 L 28 11.902344 L 28 16.980469 L 22 16.980469 Z M 22 11.902344 " clip-rule="nonzero"/></clipPath></defs><path fill="#2a3362" d="M 31.074219 13.085938 L 31.65625 13.085938 L 31.65625 16 L 31.074219 16 Z M 31.074219 13.085938 " fill-opacity="1" fill-rule="nonzero"/><g clip-path="url(#0683ed2362)"><path fill="#2a3362" d="M 33.910156 14.964844 C 33.910156 15.367188 33.644531 15.550781 33.289062 15.550781 C 32.933594 15.550781 32.695312 15.371094 32.695312 14.988281 L 32.695312 13.949219 L 32.113281 13.949219 L 32.113281 15.117188 C 32.113281 15.699219 32.492188 16.039062 33.117188 16.039062 C 33.507812 16.039062 33.726562 15.898438 33.875 15.742188 L 33.90625 15.742188 L 33.957031 16 L 34.492188 16 L 34.492188 13.949219 L 33.910156 13.949219 Z M 33.910156 14.964844 " fill-opacity="1" fill-rule="nonzero"/></g><g clip-path="url(#29af14941b)"><path fill="#2a3362" d="M 39.617188 15.59375 C 39.191406 15.59375 38.953125 15.40625 38.914062 15.132812 L 40.761719 15.132812 C 40.769531 15.074219 40.773438 15.015625 40.773438 14.960938 C 40.769531 14.222656 40.195312 13.910156 39.578125 13.910156 C 38.867188 13.910156 38.328125 14.324219 38.328125 14.992188 C 38.328125 15.625 38.84375 16.039062 39.617188 16.039062 C 40.261719 16.039062 40.691406 15.761719 40.777344 15.335938 L 40.203125 15.335938 C 40.140625 15.503906 39.933594 15.59375 39.617188 15.59375 Z M 39.582031 14.355469 C 39.953125 14.355469 40.167969 14.515625 40.203125 14.742188 L 38.929688 14.742188 C 38.984375 14.523438 39.199219 14.355469 39.582031 14.355469 Z M 39.582031 14.355469 " fill-opacity="1" fill-rule="nonzero"/></g><path fill="#2a3362" d="M 41.765625 14.242188 L 41.730469 14.242188 L 41.675781 13.949219 L 41.148438 13.949219 L 41.148438 16 L 41.730469 16 L 41.730469 15.117188 C 41.730469 14.71875 41.964844 14.5 42.40625 14.5 C 42.484375 14.5 42.5625 14.507812 42.644531 14.519531 L 42.644531 13.949219 L 42.5625 13.949219 C 42.167969 13.949219 41.929688 14.027344 41.765625 14.242188 Z M 41.765625 14.242188 " fill-opacity="1" fill-rule="nonzero"/><path fill="#2a3362" d="M 45.496094 15.359375 L 45.464844 15.359375 L 44.964844 14.078125 L 44.367188 14.078125 L 43.878906 15.355469 L 43.839844 15.355469 L 43.375 13.949219 L 42.796875 13.949219 L 43.511719 16 L 44.144531 16 L 44.648438 14.691406 L 44.683594 14.691406 L 45.183594 16 L 45.820312 16 L 46.53125 13.949219 L 45.953125 13.949219 Z M 45.496094 15.359375 " fill-opacity="1" fill-rule="nonzero"/><g clip-path="url(#c09e9b883e)"><path fill="#2a3362" d="M 48.847656 15.402344 L 48.847656 14.714844 C 48.847656 14.160156 48.363281 13.910156 47.757812 13.910156 C 47.121094 13.910156 46.71875 14.203125 46.664062 14.648438 L 47.246094 14.648438 C 47.289062 14.453125 47.457031 14.347656 47.757812 14.347656 C 48.0625 14.347656 48.265625 14.460938 48.265625 14.683594 L 48.265625 14.738281 L 47.316406 14.808594 C 46.878906 14.839844 46.554688 15.027344 46.554688 15.433594 C 46.554688 15.847656 46.925781 16.042969 47.464844 16.042969 C 47.898438 16.042969 48.164062 15.925781 48.328125 15.75 L 48.355469 15.75 C 48.445312 15.949219 48.632812 16.003906 48.832031 16.003906 L 49.078125 16.003906 L 49.078125 15.585938 L 49.023438 15.585938 C 48.90625 15.582031 48.847656 15.523438 48.847656 15.402344 Z M 48.265625 15.183594 C 48.265625 15.507812 47.867188 15.617188 47.527344 15.617188 C 47.296875 15.617188 47.144531 15.558594 47.144531 15.402344 C 47.144531 15.261719 47.273438 15.195312 47.46875 15.175781 L 48.269531 15.121094 Z M 48.265625 15.183594 " fill-opacity="1" fill-rule="nonzero"/></g><path fill="#2a3362" d="M 51 13.949219 L 50.320312 15.433594 L 50.285156 15.433594 L 49.59375 13.949219 L 48.964844 13.949219 L 49.949219 16 L 50.644531 16 L 51.625 13.949219 Z M 51 13.949219 " fill-opacity="1" fill-rule="nonzero"/><g clip-path="url(#581700d2b2)"><path fill="#2a3362" d="M 53.484375 15.335938 C 53.414062 15.503906 53.207031 15.59375 52.898438 15.59375 C 52.46875 15.59375 52.230469 15.40625 52.191406 15.132812 L 54.039062 15.132812 C 54.046875 15.074219 54.054688 15.015625 54.050781 14.960938 C 54.046875 14.222656 53.472656 13.910156 52.855469 13.910156 C 52.144531 13.910156 51.609375 14.324219 51.609375 14.992188 C 51.609375 15.625 52.125 16.039062 52.898438 16.039062 C 53.542969 16.039062 53.972656 15.761719 54.058594 15.335938 Z M 52.855469 14.355469 C 53.230469 14.355469 53.441406 14.515625 53.480469 14.742188 L 52.203125 14.742188 C 52.257812 14.523438 52.46875 14.355469 52.855469 14.355469 Z M 52.855469 14.355469 " fill-opacity="1" fill-rule="nonzero"/></g><path fill="#2a3362" d="M 30.132812 13.796875 C 30.132812 13.617188 30.261719 13.539062 30.429688 13.539062 C 30.511719 13.539062 30.585938 13.550781 30.664062 13.570312 L 30.761719 13.160156 C 30.617188 13.113281 30.472656 13.085938 30.324219 13.085938 C 29.894531 13.085938 29.546875 13.308594 29.546875 13.769531 L 29.546875 13.949219 L 29.042969 13.949219 L 29.042969 14.398438 L 29.546875 14.398438 L 29.546875 16 L 30.132812 16 L 30.132812 14.398438 L 30.789062 14.398438 L 30.789062 13.949219 L 30.132812 13.949219 Z M 30.132812 13.796875 " fill-opacity="1" fill-rule="nonzero"/><g clip-path="url(#55f2869b5b)"><path fill="#2a3362" d="M 35.78125 13.371094 L 35.238281 13.371094 L 35.210938 13.953125 L 34.753906 13.953125 L 34.753906 14.402344 L 35.199219 14.402344 L 35.199219 15.410156 C 35.199219 15.757812 35.382812 16.042969 35.921875 16.042969 C 36.0625 16.042969 36.203125 16.03125 36.34375 16 L 36.34375 15.566406 C 36.261719 15.585938 36.183594 15.59375 36.101562 15.59375 C 35.8125 15.59375 35.78125 15.433594 35.78125 15.308594 L 35.78125 14.398438 L 36.359375 14.398438 L 36.359375 13.949219 L 35.78125 13.949219 Z M 35.78125 13.371094 " fill-opacity="1" fill-rule="nonzero"/></g><g clip-path="url(#1d326e61f4)"><path fill="#2a3362" d="M 37.609375 13.371094 L 37.070312 13.371094 L 37.042969 13.953125 L 36.585938 13.953125 L 36.585938 14.402344 L 37.03125 14.402344 L 37.03125 15.410156 C 37.03125 15.757812 37.210938 16.042969 37.753906 16.042969 C 37.894531 16.042969 38.03125 16.027344 38.171875 16 L 38.171875 15.566406 C 38.089844 15.585938 38.011719 15.59375 37.929688 15.59375 C 37.640625 15.59375 37.609375 15.433594 37.609375 15.308594 L 37.609375 14.398438 L 38.1875 14.398438 L 38.1875 13.949219 L 37.605469 13.949219 L 37.605469 13.371094 Z M 37.609375 13.371094 " fill-opacity="1" fill-rule="nonzero"/></g><g clip-path="url(#b7bdaf4c52)"><path fill="#2a3362" d="M 20.941406 13.011719 C 20.941406 12.679688 21.039062 12.398438 21.246094 12.199219 L 21.609375 12.550781 C 21.207031 12.941406 21.558594 14.152344 22.703125 15.265625 C 23.847656 16.378906 25.09375 16.71875 25.496094 16.328125 L 25.855469 16.679688 C 25.175781 17.339844 23.636719 16.867188 22.339844 15.617188 C 21.445312 14.742188 20.941406 13.753906 20.941406 13.011719 Z M 20.941406 13.011719 " fill-opacity="1" fill-rule="nonzero"/></g><g clip-path="url(#2f0c6bec33)"><path fill="#2a3362" d="M 23.21875 16.980469 C 22.878906 16.980469 22.589844 16.886719 22.386719 16.683594 L 22.746094 16.332031 C 23.148438 16.722656 24.394531 16.382812 25.539062 15.269531 C 26.683594 14.15625 27.035156 12.945312 26.632812 12.554688 L 26.996094 12.203125 C 27.675781 12.863281 27.191406 14.363281 25.898438 15.617188 C 25 16.488281 23.980469 16.980469 23.21875 16.980469 Z M 23.21875 16.980469 " fill-opacity="1" fill-rule="nonzero"/></g><g clip-path="url(#ec5d3dd573)"><path fill="#2a3362" d="M 26.015625 15.117188 C 25.796875 14.503906 25.347656 13.847656 24.753906 13.269531 C 23.460938 12.011719 21.917969 11.546875 21.238281 12.203125 C 21.191406 12.25 21.234375 12.367188 21.332031 12.460938 C 21.429688 12.558594 21.554688 12.597656 21.601562 12.554688 C 22 12.164062 23.25 12.503906 24.394531 13.617188 C 24.9375 14.144531 25.339844 14.734375 25.535156 15.277344 C 25.707031 15.757812 25.691406 16.140625 25.492188 16.335938 C 25.445312 16.382812 25.484375 16.496094 25.585938 16.59375 C 25.6875 16.695312 25.804688 16.730469 25.851562 16.6875 C 26.199219 16.347656 26.257812 15.789062 26.015625 15.117188 Z M 26.015625 15.117188 " fill-opacity="1" fill-rule="nonzero"/></g><g clip-path="url(#7d9e5886ae)"><path fill="#2a3362" d="M 26.992188 12.203125 C 26.644531 11.867188 26.070312 11.808594 25.378906 12.042969 C 24.746094 12.253906 24.070312 12.691406 23.480469 13.265625 C 22.1875 14.523438 21.707031 16.023438 22.386719 16.683594 C 22.433594 16.730469 22.554688 16.691406 22.652344 16.589844 C 22.75 16.492188 22.792969 16.378906 22.746094 16.332031 C 22.34375 15.941406 22.695312 14.730469 23.839844 13.617188 C 24.382812 13.089844 24.988281 12.699219 25.546875 12.507812 C 26.039062 12.34375 26.433594 12.355469 26.632812 12.550781 C 26.679688 12.597656 26.800781 12.558594 26.902344 12.460938 C 27.003906 12.359375 27.042969 12.25 26.992188 12.203125 Z M 26.992188 12.203125 " fill-opacity="1" fill-rule="nonzero"/></g></svg>