<svg xmlns="http://www.w3.org/2000/svg" xmlns:xlink="http://www.w3.org/1999/xlink" width="500" zoomAndPan="magnify" viewBox="0 0 375 374.999991" height="500" preserveAspectRatio="xMidYMid meet" version="1.0"><defs><clipPath id="4a070cb3b7"><path d="M 3.179688 26.222656 L 372 26.222656 L 372 348.722656 L 3.179688 348.722656 Z M 3.179688 26.222656 " clip-rule="nonzero"/></clipPath><clipPath id="6586547cc9"><path d="M 3.179688 84 L 281 84 L 281 321 L 3.179688 321 Z M 3.179688 84 " clip-rule="nonzero"/></clipPath></defs><g clip-path="url(#4a070cb3b7)"><path fill="#333333" d="M 285.515625 87.539062 L 328.679688 26.207031 L 371.84375 87.539062 L 345.949219 87.539062 L 345.949219 146.730469 C 345.949219 318.648438 137.742188 348.734375 6.453125 348.734375 L 3.515625 348.734375 L 3.515625 331.5 C 6.390625 331.503906 9.03125 331.507812 10.441406 331.511719 C 66.792969 331.667969 311.414062 332.335938 311.414062 146.734375 L 311.414062 87.539062 Z M 285.515625 87.539062 " fill-opacity="1" fill-rule="evenodd"/></g><g clip-path="url(#6586547cc9)"><path fill="#333333" d="M 43.996094 232.011719 L 40.753906 234.15625 L 39.007812 254.375 C 34.9375 246.257812 30.839844 235.710938 28.640625 226.929688 C 22.074219 229.476562 12.257812 230.253906 8.984375 236.863281 C 5.617188 243.644531 4.066406 307.652344 3.519531 319.679688 C 3.5 320.148438 3.566406 320.585938 3.71875 320.992188 L 3.71875 317.121094 L 13.359375 317.136719 C 31.660156 317.1875 50.25 316.761719 68.839844 315.523438 C 69.507812 299.023438 69.851562 275.730469 70.535156 260.109375 C 70.960938 250.433594 71.429688 240.726562 72.132812 231.054688 C 68.050781 229.285156 63.15625 228.40625 59.351562 226.929688 C 57.148438 235.707031 53.050781 246.257812 48.980469 254.375 L 47.234375 234.15625 Z M 230.105469 165.804688 L 225.789062 168.660156 L 223.460938 195.625 C 218.03125 184.804688 212.570312 170.738281 209.636719 159.035156 C 200.878906 162.425781 187.792969 163.464844 183.429688 172.28125 C 179.296875 180.605469 177.214844 269.46875 176.34375 296.011719 C 179.371094 295.003906 182.382812 293.949219 185.375 292.851562 C 228.945312 276.824219 262.414062 252.554688 280.90625 217.351562 C 279.839844 195.34375 278.484375 175.703125 276.785156 172.28125 C 272.425781 163.464844 259.335938 162.429688 250.582031 159.039062 C 247.644531 170.738281 242.183594 184.804688 236.757812 195.625 L 234.429688 168.660156 Z M 230.105469 152.378906 C 254.976562 152.378906 272.53125 84.832031 230.105469 84.832031 C 187.683594 84.832031 205.238281 152.378906 230.105469 152.378906 Z M 130.304688 205.375 L 126.527344 207.875 L 124.488281 231.46875 C 119.738281 222 114.960938 209.691406 112.394531 199.457031 C 104.730469 202.421875 93.277344 203.332031 89.464844 211.042969 C 85.851562 218.308594 84.027344 291.648438 83.265625 314.390625 C 109.863281 311.96875 136.316406 307.679688 161.78125 300.488281 C 162.648438 281.257812 163.027344 261.964844 163.855469 242.714844 C 164.257812 233.367188 164.691406 217.992188 165.289062 205.316406 C 160.1875 202.507812 153.351562 201.445312 148.21875 199.457031 C 145.652344 209.695312 140.871094 222.003906 136.121094 231.46875 L 134.085938 207.878906 Z M 130.304688 193.539062 C 152 193.539062 167.3125 134.613281 130.304688 134.613281 C 93.300781 134.613281 108.609375 193.539062 130.304688 193.539062 Z M 43.996094 221.761719 C 62.515625 221.761719 75.585938 171.460938 43.996094 171.460938 C 12.402344 171.460938 25.476562 221.761719 43.996094 221.761719 Z M 43.996094 221.761719 " fill-opacity="1" fill-rule="evenodd"/></g><path stroke-linecap="butt" transform="matrix(0.749994, -0.00305175, 0.00305175, 0.749994, 3.175057, 348.778981)" fill="none" stroke-linejoin="miter" d="M -0.00195517 1.997826 L 491.523 1.997841 " stroke="#333333" stroke-width="4" stroke-opacity="1" stroke-miterlimit="4"/></svg>