<svg width="1920" height="1080" viewBox="0 0 1920 1080" fill="none" xmlns="http://www.w3.org/2000/svg">
<g id="Slide-02" clip-path="url(#clip0_1_63)">
<rect width="1920" height="1080" fill="white"/>
<g id="Group 2">
<path id="Union" fill-rule="evenodd" clip-rule="evenodd" d="M0 0H1920V1080H1049.9H841.87H0V0Z" fill="#ffe5b4"/>
</g>
<g id="Slide-02 1" clip-path="url(#clip1_1_63)">
<g id="Group">
<path id="Vector" d="M1049.9 1080H841.87C868.46 1053.31 905.24 1036.79 945.89 1036.79C986.54 1036.79 1023.32 1053.31 1049.9 1080Z" fill="#ECEFF1"/>
</g>
<path id="Vector_2" d="M504.26 931.5C427.38 931.5 355.09 901.56 300.73 847.19C246.36 792.82 216.42 720.54 216.42 643.66C216.42 566.78 246.36 494.49 300.73 440.13C355.1 385.76 427.38 355.82 504.26 355.82C581.14 355.82 653.43 385.76 707.79 440.13C762.16 494.5 792.1 566.78 792.1 643.66C792.1 720.54 762.16 792.83 707.79 847.19C653.42 901.56 581.14 931.5 504.26 931.5Z" stroke="#ECEFF1" stroke-width="5" stroke-miterlimit="10"/>
<path id="Vector_3" d="M504.26 886.35C439.43 886.35 378.49 861.11 332.65 815.27C286.81 769.43 261.57 708.49 261.57 643.66C261.57 578.83 286.81 517.89 332.65 472.05C378.49 426.21 439.43 400.97 504.26 400.97C569.09 400.97 630.03 426.21 675.87 472.05C721.71 517.89 746.95 578.83 746.95 643.66C746.95 708.49 721.71 769.43 675.87 815.27C630.03 861.11 569.09 886.35 504.26 886.35Z" fill="#FCFCFC"/>
<path id="Vector_4" d="M500.02 838.22C607.472 838.22 694.58 751.112 694.58 643.66C694.58 536.207 607.472 449.1 500.02 449.1C392.567 449.1 305.46 536.207 305.46 643.66C305.46 751.112 392.567 838.22 500.02 838.22Z" fill="#F7F7F7"/>
<path id="Vector_5" opacity="0.9" d="M477.96 524.8L355.42 737.04C345.62 754.02 357.87 775.25 377.48 775.25H622.56C642.17 775.25 654.43 754.02 644.62 737.04L522.08 524.8C512.28 507.82 487.76 507.82 477.96 524.8Z" fill="#22240E"/>
<path id="Vector_6" d="M417.44 701.94L476.95 598.87C487.2 581.11 512.83 581.11 523.08 598.87L582.59 701.94C592.84 719.7 580.03 741.89 559.52 741.89H440.5C420 741.89 407.18 719.69 417.43 701.94H417.44Z" fill="white"/>
<path id="Vector_7" d="M265.95 659.59H265.94C191.144 659.59 130.51 720.224 130.51 795.02V795.03C130.51 869.826 191.144 930.46 265.94 930.46H265.95C340.746 930.46 401.38 869.826 401.38 795.03V795.02C401.38 720.224 340.746 659.59 265.95 659.59Z" fill="url(#paint0_linear_1_63)"/>
<path id="Vector_8" d="M267.18 890.01C213.82 890.69 170.27 847.14 170.95 793.78C171.62 741.59 214.99 700.02 267.18 700.02C318.96 700.02 360.94 742 360.94 793.78C360.94 845.97 319.36 889.34 267.17 890.01H267.18Z" fill="white"/>
<path id="Vector_9" d="M739.27 662.45H739.26C664.464 662.45 603.83 723.084 603.83 797.88V797.89C603.83 872.686 664.464 933.32 739.26 933.32H739.27C814.066 933.32 874.7 872.686 874.7 797.89V797.88C874.7 723.084 814.066 662.45 739.27 662.45Z" fill="url(#paint1_linear_1_63)"/>
<path id="Vector_10" d="M738.03 892.87C685.84 892.2 644.26 848.83 644.26 796.64C644.26 744.86 686.24 702.88 738.02 702.88C790.21 702.88 833.58 744.46 834.25 796.64C834.93 850 791.38 893.55 738.02 892.87H738.03Z" fill="white"/>
<path id="Vector_11" d="M500.02 288.52H500.01C425.214 288.52 364.58 349.154 364.58 423.95V423.96C364.58 498.756 425.214 559.39 500.01 559.39H500.02C574.816 559.39 635.45 498.756 635.45 423.96V423.95C635.45 349.154 574.816 288.52 500.02 288.52Z" fill="url(#paint2_linear_1_63)"/>
<path id="Vector_12" d="M498.78 518.95C446.59 518.28 405.01 474.91 405.01 422.72C405.01 370.94 446.99 328.96 498.77 328.96C550.96 328.96 594.33 370.54 595 422.72C595.68 476.08 552.13 519.63 498.77 518.95H498.78Z" fill="white"/>
<path id="circleiconcontainer2" d="M757.47 544.77C776.596 544.77 792.1 529.266 792.1 510.14C792.1 491.014 776.596 475.51 757.47 475.51C738.344 475.51 722.84 491.014 722.84 510.14C722.84 529.266 738.344 544.77 757.47 544.77Z" fill="#ECEFF1" stroke="#ECEFF1" stroke-miterlimit="10"/>
<path id="circle-icon2" d="M757.47 529.08C747.03 529.08 738.53 520.58 738.53 510.14C738.53 499.7 747.03 491.2 757.47 491.2C767.91 491.2 776.41 499.7 776.41 510.14C776.41 520.58 767.91 529.08 757.47 529.08Z" fill="#19341A"/>
<path id="circleiconcontainer1" d="M249.63 544.77C268.756 544.77 284.26 529.266 284.26 510.14C284.26 491.014 268.756 475.51 249.63 475.51C230.504 475.51 215 491.014 215 510.14C215 529.266 230.504 544.77 249.63 544.77Z" fill="#ECEFF1" stroke="#ECEFF1" stroke-miterlimit="10"/>
<path id="circle-icon1" opacity="0.9" d="M249.63 529.08C239.19 529.08 230.69 520.58 230.69 510.14C230.69 499.7 239.19 491.2 249.63 491.2C260.07 491.2 268.57 499.7 268.57 510.14C268.57 520.58 260.07 529.08 249.63 529.08Z" fill="#19341A"/>
<path id="circleiconcontainer3" d="M504.26 967.94C523.386 967.94 538.89 952.436 538.89 933.31C538.89 914.184 523.386 898.68 504.26 898.68C485.134 898.68 469.63 914.184 469.63 933.31C469.63 952.436 485.134 967.94 504.26 967.94Z" fill="#ECEFF1" stroke="#ECEFF1" stroke-miterlimit="10"/>
<path id="circle-icon3" d="M504.26 952.25C493.82 952.25 485.32 943.75 485.32 933.31C485.32 922.87 493.82 914.37 504.26 914.37C514.7 914.37 523.2 922.87 523.2 933.31C523.2 943.75 514.7 952.25 504.26 952.25Z" fill="#19341A"/>
<path id="Vector_13" d="M518.38 668.75C516.3 668.75 514.53 668.02 513.07 666.56C511.61 665.1 510.88 663.33 510.88 661.25C510.88 659.17 511.61 657.4 513.07 655.94C514.53 654.48 516.3 653.75 518.38 653.75C520.46 653.75 522.23 654.48 523.69 655.94C525.15 657.4 525.88 659.17 525.88 661.25C525.88 663.33 525.15 665.1 523.69 666.56C522.23 668.02 520.46 668.75 518.38 668.75ZM473.38 668.75C471.3 668.75 469.53 668.02 468.07 666.56C466.61 665.1 465.88 663.33 465.88 661.25C465.88 659.17 466.61 657.4 468.07 655.94C469.53 654.48 471.3 653.75 473.38 653.75C475.46 653.75 477.23 654.48 478.69 655.94C480.15 657.4 480.88 659.17 480.88 661.25C480.88 663.33 480.15 665.1 478.69 666.56C477.23 668.02 475.46 668.75 473.38 668.75ZM495.88 682.5C493.8 682.5 492.03 681.77 490.57 680.31C489.11 678.85 488.38 677.08 488.38 675C488.38 672.92 489.11 671.15 490.57 669.69C492.03 668.23 493.8 667.5 495.88 667.5C497.96 667.5 499.73 668.23 501.19 669.69C502.65 671.15 503.38 672.92 503.38 675C503.38 677.08 502.65 678.85 501.19 680.31C499.73 681.77 497.96 682.5 495.88 682.5ZM495.88 655C493.8 655 492.03 654.27 490.57 652.81C489.11 651.35 488.38 649.58 488.38 647.5C488.38 645.42 489.11 643.65 490.57 642.19C492.03 640.73 493.8 640 495.88 640C497.96 640 499.73 640.73 501.19 642.19C502.65 643.65 503.38 645.42 503.38 647.5C503.38 649.58 502.65 651.35 501.19 652.81C499.73 654.27 497.96 655 495.88 655ZM495.88 720C494.21 720 492.53 719.88 490.82 719.62C489.11 719.36 487.47 719.04 485.88 718.62V700.74C485.88 697.82 486.86 695.3 488.82 693.18C490.78 691.06 493.13 689.99 495.88 689.99C498.63 689.99 500.98 691.05 502.94 693.18C504.9 695.31 505.88 697.83 505.88 700.74V718.62C504.3 719.04 502.65 719.37 500.94 719.62C499.23 719.87 497.54 720 495.88 720ZM478.38 716C476.71 715.33 475.11 714.58 473.57 713.75C472.03 712.92 470.55 712 469.13 711C466.8 709.33 464.94 707.17 463.57 704.5C462.2 701.83 461.51 699 461.51 696C461.51 693.83 461.28 691.81 460.82 689.94C460.36 688.07 459.55 686.29 458.38 684.63C457.55 683.55 455.98 681.9 453.69 679.69C451.4 677.48 449.29 675.42 447.38 673.5C446.46 672.58 446 671.42 446 670C446 668.58 446.46 667.42 447.38 666.5C448.3 665.58 449.46 665.12 450.88 665.12C452.3 665.12 453.46 665.58 454.38 666.5L473.5 684.62C475.17 686.12 476.4 687.89 477.19 689.93C477.98 691.97 478.38 694.08 478.38 696.24V715.99V716ZM513.38 716V696.25C513.38 694.08 513.8 691.96 514.63 689.87C515.46 687.78 516.67 686.04 518.25 684.62L537.37 666.5C538.37 665.58 539.56 665.12 540.93 665.12C542.3 665.12 543.45 665.58 544.37 666.5C545.29 667.42 545.75 668.58 545.75 670C545.75 671.42 545.29 672.58 544.37 673.5C542.45 675.42 540.35 677.46 538.06 679.62C535.77 681.78 534.21 683.45 533.37 684.62C532.2 686.29 531.39 688.06 530.93 689.93C530.47 691.8 530.24 693.83 530.24 695.99C530.24 698.99 529.55 701.84 528.18 704.55C526.81 707.26 524.91 709.45 522.49 711.11C521.16 712.03 519.72 712.9 518.18 713.73C516.64 714.56 515.03 715.31 513.37 715.98L513.38 716Z" fill="#171717"/>
</g>
<g id="Expanded">
<path id="goal" d="M1744.54 662.359H1738.47C1735.04 650.232 1727.75 639.687 1717.8 632.467V582.647C1717.8 577.361 1715.79 572.293 1712.21 568.555C1708.62 564.818 1703.77 562.718 1698.7 562.718H1671.43C1670.58 559.305 1668.68 556.28 1666.01 554.116C1663.34 551.953 1660.06 550.773 1656.68 550.762H1652.33C1651.45 547.384 1649.53 544.403 1646.86 542.277C1644.2 540.152 1640.93 539 1637.58 539C1634.23 539 1630.96 540.152 1628.3 542.277C1625.63 544.403 1623.71 547.384 1622.83 550.762H1618.48C1616.47 550.76 1614.48 551.171 1612.63 551.971C1610.78 552.771 1609.09 553.945 1607.67 555.425C1605.81 557.47 1604.5 559.983 1603.85 562.718H1584.1C1579.03 562.718 1574.18 564.818 1570.59 568.555C1567.01 572.293 1565 577.361 1565 582.647V742.072C1565 747.357 1567.01 752.426 1570.59 756.163C1574.18 759.9 1579.03 762 1584.1 762H1698.7C1703.77 762 1708.62 759.9 1712.21 756.163C1715.79 752.426 1717.8 747.357 1717.8 742.072V724.137C1727.75 716.916 1735.04 706.372 1738.47 694.244H1744.54C1747.58 694.244 1750.49 692.985 1752.64 690.742C1754.79 688.5 1756 685.459 1756 682.287V674.316C1756 671.145 1754.79 668.104 1752.64 665.861C1750.49 663.619 1747.58 662.359 1744.54 662.359ZM1613.09 561.084C1614.52 559.587 1616.46 558.742 1618.48 558.733H1626.12C1627.13 558.733 1628.1 558.313 1628.82 557.565C1629.54 556.818 1629.94 555.804 1629.94 554.747C1629.94 552.633 1630.74 550.606 1632.18 549.111C1633.61 547.616 1635.55 546.776 1637.58 546.776C1639.61 546.776 1641.55 547.616 1642.98 549.111C1644.42 550.606 1645.22 552.633 1645.22 554.747C1645.22 555.804 1645.62 556.818 1646.34 557.565C1647.06 558.313 1648.03 558.733 1649.04 558.733H1656.68C1658.71 558.733 1660.65 559.573 1662.08 561.068C1663.52 562.562 1664.32 564.59 1664.32 566.704C1664.32 568.818 1663.52 570.846 1662.08 572.341C1660.65 573.836 1658.71 574.675 1656.68 574.675H1618.48C1616.45 574.675 1614.51 573.836 1613.08 572.341C1611.64 570.846 1610.84 568.818 1610.84 566.704C1610.85 564.593 1611.66 562.572 1613.09 561.084ZM1710.16 742.072C1710.16 745.243 1708.95 748.284 1706.8 750.527C1704.65 752.769 1701.74 754.029 1698.7 754.029H1584.1C1581.06 754.029 1578.15 752.769 1576 750.527C1573.85 748.284 1572.64 745.243 1572.64 742.072V582.647C1572.64 579.475 1573.85 576.434 1576 574.192C1578.15 571.949 1581.06 570.69 1584.1 570.69H1603.73C1604.58 574.103 1606.48 577.129 1609.15 579.292C1611.82 581.455 1615.1 582.635 1618.48 582.647H1656.68C1658.69 582.648 1660.68 582.237 1662.53 581.437C1664.38 580.637 1666.07 579.463 1667.49 577.983C1669.35 575.939 1670.66 573.425 1671.31 570.69H1698.7C1701.74 570.69 1704.65 571.949 1706.8 574.192C1708.95 576.434 1710.16 579.475 1710.16 582.647V627.884C1702.01 623.851 1693.01 622.035 1684.01 622.605C1675 623.176 1666.28 626.114 1658.66 631.145C1651.03 636.177 1644.75 643.14 1640.4 651.385C1636.05 659.63 1633.77 668.889 1633.77 678.302C1633.77 687.714 1636.05 696.974 1640.4 705.219C1644.75 713.464 1651.03 720.426 1658.66 725.458C1666.28 730.49 1675 733.428 1684.01 733.998C1693.01 734.568 1702.01 732.753 1710.16 728.72V742.072ZM1712.53 718.158C1705.61 722.866 1697.6 725.538 1689.35 725.89C1681.1 726.242 1672.91 724.262 1665.65 720.159C1658.39 716.055 1652.32 709.981 1648.1 702.578C1643.87 695.176 1641.64 686.719 1641.64 678.102C1641.64 669.486 1643.87 661.029 1648.1 653.627C1652.32 646.224 1658.39 640.15 1665.65 636.046C1672.91 631.943 1681.1 629.963 1689.35 630.315C1697.6 630.667 1705.61 633.338 1712.53 638.047C1720.93 643.855 1727.24 652.406 1730.48 662.359C1728.48 662.594 1726.57 663.378 1724.94 664.631L1723.53 665.747C1720.7 656.741 1714.88 649.084 1707.12 644.15C1699.36 639.216 1690.17 637.329 1681.2 638.826C1672.23 640.324 1664.06 645.109 1658.17 652.321C1652.27 659.534 1649.04 668.703 1649.04 678.182C1649.04 687.661 1652.27 696.83 1658.17 704.043C1664.06 711.256 1672.23 716.04 1681.2 717.538C1690.17 719.036 1699.36 717.148 1707.12 712.214C1714.88 707.28 1720.7 699.623 1723.53 690.617L1724.94 691.733C1726.57 692.986 1728.48 693.77 1730.48 694.005C1727.21 703.9 1720.9 712.39 1712.53 718.158ZM1712.72 674.316H1709.82C1708.86 668.404 1705.81 663.083 1701.27 659.407C1696.73 655.732 1691.03 653.97 1685.3 654.472C1679.57 654.973 1674.24 657.701 1670.35 662.115C1666.46 666.528 1664.3 672.306 1664.3 678.302C1664.3 684.298 1666.46 690.075 1670.35 694.489C1674.24 698.903 1679.57 701.63 1685.3 702.132C1691.03 702.633 1696.73 700.872 1701.27 697.196C1705.81 693.521 1708.86 688.2 1709.82 682.287H1712.72L1716.96 685.635C1715.24 693.243 1710.89 699.925 1704.76 704.412C1698.62 708.899 1691.12 710.877 1683.68 709.972C1676.24 709.067 1669.37 705.341 1664.39 699.503C1659.41 693.664 1656.66 686.119 1656.66 678.302C1656.66 670.485 1659.41 662.94 1664.39 657.101C1669.37 651.262 1676.24 647.536 1683.68 646.631C1691.12 645.726 1698.62 647.705 1704.76 652.192C1710.89 656.679 1715.24 663.361 1716.96 670.968L1712.72 674.316ZM1687.24 682.287H1701.99C1701.06 686.044 1698.84 689.319 1695.77 691.497C1692.69 693.674 1688.95 694.606 1685.27 694.117C1681.58 693.628 1678.18 691.752 1675.73 688.841C1673.27 685.929 1671.91 682.182 1671.91 678.302C1671.91 674.421 1673.27 670.674 1675.73 667.763C1678.18 664.851 1681.58 662.975 1685.27 662.486C1688.95 661.997 1692.69 662.929 1695.77 665.107C1698.84 667.285 1701.06 670.559 1701.99 674.316H1687.24C1686.23 674.316 1685.26 674.736 1684.54 675.483C1683.82 676.231 1683.42 677.245 1683.42 678.302C1683.42 679.359 1683.82 680.373 1684.54 681.12C1685.26 681.867 1686.23 682.287 1687.24 682.287ZM1748.36 682.287C1748.36 683.344 1747.96 684.358 1747.24 685.106C1746.52 685.853 1745.55 686.273 1744.54 686.273H1731.82C1730.99 686.273 1730.19 685.993 1729.53 685.476L1720.36 678.302L1729.53 671.128C1730.19 670.61 1730.99 670.331 1731.82 670.331H1744.54C1745.55 670.331 1746.52 670.75 1747.24 671.498C1747.96 672.245 1748.36 673.259 1748.36 674.316V682.287ZM1595.56 622.503H1603.2C1606.24 622.503 1609.15 621.243 1611.3 619.001C1613.45 616.758 1614.66 613.717 1614.66 610.546V602.575C1614.66 599.404 1613.45 596.362 1611.3 594.12C1609.15 591.878 1606.24 590.618 1603.2 590.618H1595.56C1592.52 590.618 1589.61 591.878 1587.46 594.12C1585.31 596.362 1584.1 599.404 1584.1 602.575V610.546C1584.1 613.717 1585.31 616.758 1587.46 619.001C1589.61 621.243 1592.52 622.503 1595.56 622.503ZM1591.74 602.575C1591.74 601.518 1592.14 600.504 1592.86 599.757C1593.58 599.009 1594.55 598.589 1595.56 598.589H1603.2C1604.21 598.589 1605.18 599.009 1605.9 599.757C1606.62 600.504 1607.02 601.518 1607.02 602.575V610.546C1607.02 611.603 1606.62 612.617 1605.9 613.364C1605.18 614.112 1604.21 614.532 1603.2 614.532H1595.56C1594.55 614.532 1593.58 614.112 1592.86 613.364C1592.14 612.617 1591.74 611.603 1591.74 610.546V602.575ZM1622.3 606.56C1622.3 605.503 1622.7 604.49 1623.42 603.742C1624.14 602.995 1625.11 602.575 1626.12 602.575H1694.88C1695.89 602.575 1696.86 602.995 1697.58 603.742C1698.3 604.49 1698.7 605.503 1698.7 606.56C1698.7 607.617 1698.3 608.631 1697.58 609.379C1696.86 610.126 1695.89 610.546 1694.88 610.546H1626.12C1625.11 610.546 1624.14 610.126 1623.42 609.379C1622.7 608.631 1622.3 607.617 1622.3 606.56ZM1584.1 642.431C1584.1 641.374 1584.5 640.36 1585.22 639.613C1585.94 638.865 1586.91 638.445 1587.92 638.445H1626.12C1627.13 638.445 1628.1 638.865 1628.82 639.613C1629.54 640.36 1629.94 641.374 1629.94 642.431C1629.94 643.488 1629.54 644.502 1628.82 645.249C1628.1 645.997 1627.13 646.417 1626.12 646.417H1587.92C1586.91 646.417 1585.94 645.997 1585.22 645.249C1584.5 644.502 1584.1 643.488 1584.1 642.431ZM1584.1 658.374C1584.1 657.317 1584.5 656.303 1585.22 655.555C1585.94 654.808 1586.91 654.388 1587.92 654.388H1610.84C1611.85 654.388 1612.82 654.808 1613.54 655.555C1614.26 656.303 1614.66 657.317 1614.66 658.374C1614.66 659.431 1614.26 660.444 1613.54 661.192C1612.82 661.939 1611.85 662.359 1610.84 662.359H1587.92C1586.91 662.359 1585.94 661.939 1585.22 661.192C1584.5 660.444 1584.1 659.431 1584.1 658.374ZM1584.1 674.316C1584.1 673.259 1584.5 672.245 1585.22 671.498C1585.94 670.75 1586.91 670.331 1587.92 670.331H1618.48C1619.49 670.331 1620.46 670.75 1621.18 671.498C1621.9 672.245 1622.3 673.259 1622.3 674.316C1622.3 675.373 1621.9 676.387 1621.18 677.134C1620.46 677.882 1619.49 678.302 1618.48 678.302H1587.92C1586.91 678.302 1585.94 677.882 1585.22 677.134C1584.5 676.387 1584.1 675.373 1584.1 674.316ZM1622.3 734.101C1622.3 735.158 1621.9 736.171 1621.18 736.919C1620.46 737.666 1619.49 738.086 1618.48 738.086H1587.92C1586.91 738.086 1585.94 737.666 1585.22 736.919C1584.5 736.171 1584.1 735.158 1584.1 734.101C1584.1 733.044 1584.5 732.03 1585.22 731.282C1585.94 730.535 1586.91 730.115 1587.92 730.115H1618.48C1619.49 730.115 1620.46 730.535 1621.18 731.282C1621.9 732.03 1622.3 733.044 1622.3 734.101ZM1637.58 718.158C1637.58 719.215 1637.18 720.229 1636.46 720.976C1635.74 721.724 1634.77 722.144 1633.76 722.144H1587.92C1586.91 722.144 1585.94 721.724 1585.22 720.976C1584.5 720.229 1584.1 719.215 1584.1 718.158C1584.1 717.101 1584.5 716.087 1585.22 715.34C1585.94 714.592 1586.91 714.172 1587.92 714.172H1633.76C1634.77 714.172 1635.74 714.592 1636.46 715.34C1637.18 716.087 1637.58 717.101 1637.58 718.158ZM1584.1 702.216C1584.1 701.158 1584.5 700.145 1585.22 699.397C1585.94 698.65 1586.91 698.23 1587.92 698.23H1618.48C1619.49 698.23 1620.46 698.65 1621.18 699.397C1621.9 700.145 1622.3 701.158 1622.3 702.216C1622.3 703.273 1621.9 704.286 1621.18 705.034C1620.46 705.781 1619.49 706.201 1618.48 706.201H1587.92C1586.91 706.201 1585.94 705.781 1585.22 705.034C1584.5 704.286 1584.1 703.273 1584.1 702.216Z" fill="black"/>
<g id="Expanded_2">
<path id="contract" d="M1358.68 628.198L1364.36 623.061C1366.87 620.757 1368.46 617.761 1368.89 614.546C1369.31 611.331 1368.54 608.08 1366.69 605.307C1364.84 602.533 1362.03 600.395 1358.69 599.23C1355.34 598.065 1351.67 597.94 1348.24 598.873V576.214C1348.24 571.384 1346.12 566.751 1342.34 563.335C1338.57 559.919 1333.44 558 1328.1 558H1191.14C1185.8 558 1180.68 559.919 1176.9 563.335C1173.12 566.751 1171 571.384 1171 576.214V743.786C1171 748.616 1173.12 753.249 1176.9 756.665C1180.68 760.081 1185.8 762 1191.14 762H1328.1C1333.44 762 1338.57 760.081 1342.34 756.665C1346.12 753.249 1348.24 748.616 1348.24 743.786V658.142L1361.37 646.23C1363.64 644.181 1364.91 641.403 1364.91 638.507C1364.91 635.611 1363.64 632.833 1361.37 630.784L1358.68 628.198ZM1358.68 607.616C1360.18 608.981 1361.02 610.827 1361.02 612.752C1361.02 614.677 1360.18 616.524 1358.68 617.889L1341.56 633.371L1330.2 623.061L1347.15 607.689C1347.9 607.011 1348.79 606.474 1349.77 606.107C1350.75 605.74 1351.8 605.552 1352.85 605.552C1353.91 605.552 1354.96 605.74 1355.94 606.107C1356.92 606.474 1357.81 607.011 1358.55 607.689L1358.68 607.616ZM1240.08 723.823L1222.88 729.943L1230.05 714.643C1230.68 713.371 1231.55 712.212 1232.63 711.219L1313.2 638.361L1324.6 648.671L1244.19 721.382C1243.02 722.436 1241.62 723.266 1240.08 723.823ZM1330.16 643.68L1318.76 633.407L1324.44 628.234L1335.84 638.544L1330.16 643.68ZM1355.78 641.13L1327.3 666.885C1326.55 667.568 1326.12 668.491 1326.12 669.453C1326.12 670.416 1326.55 671.339 1327.3 672.021C1328.05 672.7 1329.07 673.081 1330.14 673.081C1331.2 673.081 1332.22 672.7 1332.98 672.021L1340.27 665.464V743.786C1340.27 746.684 1338.99 749.464 1336.73 751.513C1334.46 753.563 1331.39 754.714 1328.18 754.714H1191.22C1188.02 754.714 1184.94 753.563 1182.68 751.513C1180.41 749.464 1179.14 746.684 1179.14 743.786V576.214C1179.14 573.316 1180.41 570.536 1182.68 568.487C1184.94 566.437 1188.02 565.286 1191.22 565.286H1328.18C1331.39 565.286 1334.46 566.437 1336.73 568.487C1338.99 570.536 1340.27 573.316 1340.27 576.214V603.572L1283.61 654.827L1226.95 706.082C1225.14 707.725 1223.69 709.666 1222.68 711.801L1211.69 735.079C1211.5 735.47 1211.4 735.892 1211.4 736.318C1211.4 736.318 1211.4 736.318 1211.4 736.536C1211.45 736.871 1211.53 737.201 1211.64 737.52C1211.63 737.629 1211.63 737.739 1211.64 737.848C1211.82 738.222 1212.07 738.567 1212.37 738.868C1212.74 739.209 1213.18 739.481 1213.66 739.669C1214.16 739.853 1214.69 739.952 1215.23 739.961H1303.85C1304.92 739.961 1305.94 739.577 1306.7 738.894C1307.45 738.211 1307.88 737.284 1307.88 736.318C1307.88 735.352 1307.45 734.425 1306.7 733.742C1305.94 733.059 1304.92 732.675 1303.85 732.675H1236.66L1243.02 730.416C1245.59 729.554 1247.93 728.228 1249.91 726.519L1352.91 633.371L1355.78 635.921C1356.15 636.259 1356.45 636.662 1356.66 637.106C1356.86 637.55 1356.97 638.026 1356.97 638.507C1356.97 638.988 1356.86 639.464 1356.66 639.908C1356.45 640.352 1356.15 640.755 1355.78 641.094V641.13ZM1235.53 619.929C1235.53 618.962 1235.11 618.036 1234.35 617.353C1233.6 616.67 1232.57 616.286 1231.5 616.286C1228.67 616.266 1225.93 615.346 1223.77 613.686C1221.61 612.027 1220.17 609.734 1219.69 607.208C1219.21 604.682 1219.72 602.084 1221.15 599.868C1222.57 597.652 1224.81 595.958 1227.48 595.084V590.786C1227.48 589.82 1227.9 588.893 1228.66 588.21C1229.41 587.527 1230.44 587.143 1231.5 587.143C1232.57 587.143 1233.6 587.527 1234.35 588.21C1235.11 588.893 1235.53 589.82 1235.53 590.786V594.429H1239.56C1240.63 594.429 1241.65 594.812 1242.41 595.496C1243.16 596.179 1243.59 597.105 1243.59 598.071C1243.59 599.038 1243.16 599.964 1242.41 600.647C1241.65 601.33 1240.63 601.714 1239.56 601.714H1231.5C1230.44 601.714 1229.41 602.098 1228.66 602.781C1227.9 603.464 1227.48 604.391 1227.48 605.357C1227.48 606.323 1227.9 607.25 1228.66 607.933C1229.41 608.616 1230.44 609 1231.5 609C1234.34 609.02 1237.07 609.94 1239.23 611.599C1241.39 613.259 1242.84 615.552 1243.32 618.078C1243.8 620.604 1243.28 623.202 1241.86 625.418C1240.44 627.634 1238.2 629.327 1235.53 630.201V634.5C1235.53 635.466 1235.11 636.393 1234.35 637.076C1233.6 637.759 1232.57 638.143 1231.5 638.143C1230.44 638.143 1229.41 637.759 1228.66 637.076C1227.9 636.393 1227.48 635.466 1227.48 634.5V630.857H1223.45C1222.38 630.857 1221.35 630.473 1220.6 629.79C1219.84 629.107 1219.42 628.18 1219.42 627.214C1219.42 626.248 1219.84 625.322 1220.6 624.638C1221.35 623.955 1222.38 623.571 1223.45 623.571H1231.5C1232.57 623.571 1233.6 623.188 1234.35 622.504C1235.11 621.821 1235.53 620.895 1235.53 619.929ZM1263.73 652.714C1266.93 652.714 1270.01 651.563 1272.28 649.513C1274.54 647.464 1275.81 644.684 1275.81 641.786V583.5C1275.81 580.602 1274.54 577.822 1272.28 575.772C1270.01 573.723 1266.93 572.571 1263.73 572.571H1199.28C1196.07 572.571 1193 573.723 1190.73 575.772C1188.47 577.822 1187.19 580.602 1187.19 583.5V641.786C1187.19 644.684 1188.47 647.464 1190.73 649.513C1193 651.563 1196.07 652.714 1199.28 652.714H1263.73ZM1195.25 641.786V583.5C1195.25 582.534 1195.67 581.607 1196.43 580.924C1197.19 580.241 1198.21 579.857 1199.28 579.857H1263.73C1264.8 579.857 1265.82 580.241 1266.58 580.924C1267.33 581.607 1267.76 582.534 1267.76 583.5V641.786C1267.76 642.752 1267.33 643.678 1266.58 644.362C1265.82 645.045 1264.8 645.429 1263.73 645.429H1199.28C1198.21 645.429 1197.19 645.045 1196.43 644.362C1195.67 643.678 1195.25 642.752 1195.25 641.786ZM1247.62 663.643C1247.62 664.609 1247.19 665.536 1246.44 666.219C1245.68 666.902 1244.66 667.286 1243.59 667.286H1195.25C1194.18 667.286 1193.16 666.902 1192.4 666.219C1191.65 665.536 1191.22 664.609 1191.22 663.643C1191.22 662.677 1191.65 661.75 1192.4 661.067C1193.16 660.384 1194.18 660 1195.25 660H1243.59C1244.66 660 1245.68 660.384 1246.44 661.067C1247.19 661.75 1247.62 662.677 1247.62 663.643ZM1227.48 681.857H1195.25C1194.18 681.857 1193.16 681.473 1192.4 680.79C1191.65 680.107 1191.22 679.18 1191.22 678.214C1191.22 677.248 1191.65 676.322 1192.4 675.638C1193.16 674.955 1194.18 674.571 1195.25 674.571H1227.48C1228.54 674.571 1229.57 674.955 1230.32 675.638C1231.08 676.322 1231.5 677.248 1231.5 678.214C1231.5 679.18 1231.08 680.107 1230.32 680.79C1229.57 681.473 1228.54 681.857 1227.48 681.857ZM1283.87 583.5C1283.87 582.534 1284.3 581.607 1285.05 580.924C1285.81 580.241 1286.83 579.857 1287.9 579.857H1320.13C1321.19 579.857 1322.22 580.241 1322.97 580.924C1323.73 581.607 1324.15 582.534 1324.15 583.5C1324.15 584.466 1323.73 585.393 1322.97 586.076C1322.22 586.759 1321.19 587.143 1320.13 587.143H1287.9C1286.83 587.143 1285.81 586.759 1285.05 586.076C1284.3 585.393 1283.87 584.466 1283.87 583.5ZM1283.87 598.071C1283.87 597.105 1284.3 596.179 1285.05 595.496C1285.81 594.812 1286.83 594.429 1287.9 594.429H1328.18C1329.25 594.429 1330.27 594.812 1331.03 595.496C1331.79 596.179 1332.21 597.105 1332.21 598.071C1332.21 599.038 1331.79 599.964 1331.03 600.647C1330.27 601.33 1329.25 601.714 1328.18 601.714H1287.9C1286.83 601.714 1285.81 601.33 1285.05 600.647C1284.3 599.964 1283.87 599.038 1283.87 598.071ZM1283.87 612.643C1283.87 611.677 1284.3 610.75 1285.05 610.067C1285.81 609.384 1286.83 609 1287.9 609H1304.01C1305.08 609 1306.11 609.384 1306.86 610.067C1307.62 610.75 1308.04 611.677 1308.04 612.643C1308.04 613.609 1307.62 614.536 1306.86 615.219C1306.11 615.902 1305.08 616.286 1304.01 616.286H1287.9C1286.83 616.286 1285.81 615.902 1285.05 615.219C1284.3 614.536 1283.87 613.609 1283.87 612.643Z" fill="black"/>
<g id="Expanded_3">
<path id="Vector_14" d="M793.107 782.25H791.022C789.837 778.339 788.17 774.576 786.058 771.04L787.547 769.639C790.342 766.965 791.912 763.338 791.912 759.557C791.912 755.775 790.342 752.149 787.547 749.475C784.753 746.801 780.962 745.299 777.01 745.299C773.058 745.299 769.268 746.801 766.474 749.475L765.009 750.9C761.314 748.879 757.381 747.284 753.294 746.15V744.25C753.294 740.471 751.725 736.846 748.932 734.174C746.139 731.501 742.351 730 738.401 730C734.451 730 730.663 731.501 727.87 734.174C725.077 736.846 723.508 740.471 723.508 744.25V746.245C719.42 747.379 715.487 748.974 711.792 750.995L710.328 749.57C708.944 748.246 707.301 747.196 705.493 746.479C703.686 745.763 701.748 745.394 699.791 745.394C697.834 745.394 695.896 745.763 694.089 746.479C692.281 747.196 690.638 748.246 689.254 749.57C686.46 752.244 684.89 755.87 684.89 759.652C684.89 763.433 686.46 767.06 689.254 769.734L690.744 771.135C688.631 774.671 686.965 778.434 685.779 782.345H683.893C679.943 782.345 676.155 783.846 673.362 786.519C670.569 789.191 669 792.816 669 796.595C669 800.374 670.569 803.999 673.362 806.671C676.155 809.344 679.943 810.845 683.893 810.845H685.978C687.163 814.756 688.83 818.519 690.942 822.055L689.453 823.456C686.658 826.13 685.088 829.757 685.088 833.538C685.088 837.32 686.658 840.946 689.453 843.62C692.247 846.294 696.038 847.796 699.99 847.796C703.942 847.796 707.732 846.294 710.526 843.62L711.991 842.195C715.686 844.216 719.619 845.811 723.706 846.945V848.75C723.706 852.529 725.275 856.154 728.068 858.826C730.861 861.499 734.649 863 738.599 863C742.549 863 746.337 861.499 749.13 858.826C751.923 856.154 753.492 852.529 753.492 848.75V846.755C757.58 845.621 761.513 844.026 765.208 842.005L766.672 843.43C769.467 846.104 773.257 847.606 777.209 847.606C781.161 847.606 784.951 846.104 787.746 843.43C790.54 840.756 792.11 837.13 792.11 833.348C792.11 829.567 790.54 825.94 787.746 823.266L786.256 821.865C788.369 818.329 790.035 814.566 791.221 810.655H793.107C797.057 810.655 800.845 809.154 803.638 806.481C806.431 803.809 808 800.184 808 796.405C808 792.626 806.431 789.001 803.638 786.329C800.845 783.656 797.057 782.155 793.107 782.155V782.25ZM793.107 806H789.136H788.937C788.781 805.975 788.622 805.975 788.466 806C788.308 806.019 788.156 806.067 788.019 806.143L787.646 806.38C787.505 806.472 787.38 806.584 787.274 806.712C787.172 806.818 787.088 806.938 787.026 807.069C786.932 807.201 786.857 807.345 786.803 807.496V807.663C785.619 812.363 783.676 816.859 781.044 820.986C781.044 820.986 781.044 821.105 781.044 821.176C780.975 821.315 780.917 821.457 780.87 821.604C780.861 821.754 780.861 821.905 780.87 822.055C780.87 822.197 780.87 822.34 780.87 822.506C780.859 822.649 780.859 822.791 780.87 822.934C780.921 823.075 780.988 823.21 781.069 823.337C781.136 823.485 781.228 823.622 781.342 823.741C781.342 823.741 781.342 823.741 781.342 823.908L784.147 826.591C786.003 828.372 787.046 830.785 787.046 833.301C787.046 835.816 786.003 838.229 784.147 840.01C782.285 841.787 779.764 842.784 777.135 842.784C774.505 842.784 771.984 841.787 770.123 840.01L767.293 837.469H767.119C766.989 837.36 766.848 837.264 766.697 837.184L766.275 836.875H765.804H765.357H764.91L764.414 837.041C764.414 837.041 764.414 837.041 764.24 837.041C759.933 839.555 755.243 841.414 750.34 842.551C750.34 842.551 750.216 842.551 750.141 842.551L749.694 842.765C749.558 842.824 749.432 842.905 749.322 843.003C749.202 843.102 749.094 843.213 748.999 843.335C748.895 843.452 748.803 843.579 748.726 843.715C748.651 843.84 748.601 843.977 748.578 844.119C748.554 844.276 748.554 844.436 748.578 844.594C748.566 844.657 748.566 844.721 748.578 844.784V848.75C748.578 851.27 747.531 853.686 745.669 855.468C743.808 857.249 741.282 858.25 738.649 858.25C736.016 858.25 733.49 857.249 731.628 855.468C729.766 853.686 728.72 851.27 728.72 848.75V844.95C728.731 844.887 728.731 844.823 728.72 844.76C728.744 844.602 728.744 844.443 728.72 844.285C728.697 844.143 728.647 844.006 728.571 843.881C728.495 843.746 728.403 843.618 728.298 843.501C728.204 843.379 728.096 843.268 727.976 843.169C727.866 843.071 727.74 842.991 727.603 842.931C727.465 842.841 727.315 842.769 727.157 842.717C727.157 842.717 727.157 842.717 726.958 842.717C722.054 841.581 717.365 839.722 713.058 837.207C713.058 837.207 712.934 837.207 712.884 837.207L712.115 836.875H711.643H711.196H710.725L710.303 837.041C710.152 837.122 710.011 837.217 709.881 837.326H709.707L706.902 840.01C705.041 841.787 702.519 842.784 699.89 842.784C697.261 842.784 694.739 841.787 692.878 840.01C691.021 838.229 689.979 835.816 689.979 833.301C689.979 830.785 691.021 828.372 692.878 826.591L695.683 823.908C695.683 823.908 695.683 823.789 695.683 823.741C695.797 823.622 695.889 823.485 695.956 823.337C696.037 823.21 696.104 823.075 696.155 822.934C696.211 822.834 696.261 822.731 696.304 822.625C696.304 822.459 696.304 822.316 696.304 822.174C696.313 822.023 696.313 821.873 696.304 821.722C696.256 821.576 696.198 821.433 696.13 821.295C696.13 821.295 696.13 821.153 696.13 821.105C693.498 816.977 691.555 812.482 690.371 807.781V807.615C690.317 807.464 690.242 807.32 690.148 807.188C690.08 807.053 689.997 806.925 689.9 806.808L689.552 806.523C689.43 806.422 689.297 806.335 689.155 806.261C689.025 806.189 688.882 806.141 688.733 806.119C688.568 806.096 688.401 806.096 688.237 806.119H688.038H683.893C681.26 806.119 678.734 805.118 676.872 803.336C675.01 801.555 673.964 799.138 673.964 796.619C673.964 794.099 675.01 791.683 676.872 789.901C678.734 788.12 681.26 787.119 683.893 787.119H687.864C688.17 787.117 688.473 787.06 688.758 786.952L689.031 786.81L689.503 786.501C689.584 786.428 689.658 786.349 689.726 786.264L690.049 785.836L690.198 785.504V785.314C691.381 780.613 693.324 776.118 695.956 771.99C695.956 771.99 695.956 771.871 695.956 771.8C696.025 771.662 696.083 771.519 696.13 771.373C696.139 771.222 696.139 771.072 696.13 770.921C696.13 770.779 696.13 770.636 696.13 770.47C696.141 770.328 696.141 770.185 696.13 770.043C696.074 769.904 696.008 769.769 695.931 769.639C695.864 769.491 695.772 769.354 695.658 769.235C695.658 769.235 695.658 769.235 695.658 769.069L692.853 766.385C690.997 764.604 689.954 762.191 689.954 759.676C689.954 757.16 690.997 754.747 692.853 752.966C694.715 751.19 697.236 750.192 699.865 750.192C702.495 750.192 705.016 751.19 706.878 752.966L709.682 755.65C709.893 755.845 710.137 756.005 710.402 756.125H710.601C710.865 756.211 711.141 756.259 711.42 756.268C711.698 756.255 711.974 756.207 712.239 756.125H712.462H712.711C717.018 753.611 721.707 751.752 726.611 750.615C726.611 750.615 726.735 750.615 726.809 750.615C726.967 750.563 727.118 750.491 727.256 750.401C727.393 750.342 727.518 750.262 727.628 750.164C727.748 750.065 727.857 749.953 727.951 749.831C728.056 749.714 728.147 749.587 728.224 749.451C728.299 749.327 728.35 749.19 728.373 749.048C728.396 748.89 728.396 748.73 728.373 748.572C728.384 748.51 728.384 748.445 728.373 748.382V744.25C728.373 741.73 729.419 739.314 731.281 737.532C733.143 735.751 735.668 734.75 738.301 734.75C740.935 734.75 743.46 735.751 745.322 737.532C747.184 739.314 748.23 741.73 748.23 744.25V748.05C748.219 748.113 748.219 748.177 748.23 748.24C748.207 748.398 748.207 748.557 748.23 748.715C748.253 748.857 748.304 748.994 748.379 749.119C748.456 749.254 748.547 749.382 748.652 749.499C748.746 749.621 748.855 749.732 748.975 749.831C749.085 749.929 749.21 750.009 749.347 750.069L749.794 750.282C749.794 750.282 749.918 750.282 749.992 750.282C754.896 751.419 759.585 753.278 763.892 755.792H764.141H764.364C764.629 755.874 764.905 755.922 765.183 755.935C765.462 755.926 765.738 755.878 766.002 755.792H766.201C766.466 755.673 766.709 755.512 766.921 755.317L769.725 752.634C771.587 750.857 774.108 749.859 776.737 749.859C779.366 749.859 781.888 750.857 783.749 752.634C785.606 754.415 786.649 756.828 786.649 759.343C786.649 761.859 785.606 764.272 783.749 766.053L781.317 768.95C781.317 768.95 781.317 769.069 781.317 769.116C781.203 769.236 781.111 769.372 781.044 769.52C780.968 769.65 780.901 769.785 780.845 769.924C780.782 770.07 780.732 770.221 780.696 770.375C780.696 770.541 780.696 770.684 780.696 770.826C780.687 770.977 780.687 771.127 780.696 771.277C780.744 771.424 780.802 771.567 780.87 771.705C780.87 771.705 780.87 771.847 780.87 771.895C783.502 776.023 785.445 780.518 786.629 785.219V785.409L786.778 785.741L787.1 786.169C787.168 786.254 787.243 786.333 787.324 786.406L787.795 786.715L788.068 786.858C788.353 786.965 788.656 787.022 788.962 787.024H793.107C795.74 787.024 798.266 788.025 800.128 789.806C801.99 791.588 803.036 794.004 803.036 796.524C803.036 799.043 801.99 801.46 800.128 803.241C798.266 805.023 795.74 806.024 793.107 806.024V806ZM738.5 753.75C729.663 753.75 721.025 756.257 713.678 760.955C706.331 765.652 700.604 772.329 697.222 780.14C693.841 787.952 692.956 796.547 694.68 804.84C696.404 813.133 700.659 820.75 706.907 826.729C713.156 832.708 721.117 836.779 729.784 838.429C738.45 840.078 747.434 839.232 755.598 835.996C763.762 832.76 770.74 827.281 775.649 820.251C780.558 813.22 783.179 804.955 783.179 796.5C783.179 785.162 778.471 774.288 770.093 766.271C761.714 758.254 750.349 753.75 738.5 753.75ZM738.5 834.5C730.645 834.5 722.967 832.271 716.436 828.096C709.905 823.92 704.815 817.986 701.809 811.042C698.803 804.098 698.016 796.458 699.549 789.087C701.081 781.715 704.864 774.944 710.418 769.63C715.972 764.316 723.048 760.696 730.752 759.23C738.456 757.764 746.441 758.516 753.698 761.393C760.955 764.269 767.157 769.139 771.521 775.388C775.885 781.637 778.214 788.984 778.214 796.5C778.214 806.578 774.03 816.244 766.582 823.37C759.134 830.496 749.033 834.5 738.5 834.5ZM738.5 763.25C731.302 763.263 724.286 765.414 718.421 769.406C712.555 773.398 708.131 779.035 705.757 785.537C703.384 792.039 703.18 799.086 705.172 805.704C707.165 812.322 711.256 818.185 716.881 822.482C716.881 822.482 716.881 822.482 717.005 822.482C723.119 827.126 730.694 829.653 738.5 829.653C746.306 829.653 753.881 827.126 759.995 822.482C759.995 822.482 759.995 822.482 760.119 822.482C765.744 818.185 769.835 812.322 771.828 805.704C773.82 799.086 773.616 792.039 771.243 785.537C768.869 779.035 764.445 773.398 758.579 769.406C752.714 765.414 745.698 763.263 738.5 763.25ZM721.125 819.609V815.5C721.129 812.883 721.778 810.303 723.02 807.972C724.262 805.64 726.062 803.622 728.274 802.081C731.038 804.58 734.697 805.972 738.5 805.972C742.303 805.972 745.962 804.58 748.726 802.081C749.491 802.546 750.221 803.062 750.911 803.625C752.517 805.193 753.782 807.049 754.634 809.087C755.486 811.126 755.908 813.305 755.875 815.5V819.609C750.822 823.112 744.741 824.999 738.5 824.999C732.259 824.999 726.178 823.112 721.125 819.609ZM738.5 801.25C736.536 801.25 734.617 800.693 732.984 799.649C731.351 798.605 730.079 797.121 729.327 795.385C728.576 793.65 728.379 791.739 728.762 789.897C729.145 788.054 730.091 786.361 731.479 785.032C732.868 783.704 734.637 782.799 736.563 782.433C738.489 782.066 740.485 782.254 742.3 782.973C744.114 783.692 745.664 784.91 746.755 786.472C747.846 788.034 748.429 789.871 748.429 791.75C748.429 794.27 747.383 796.686 745.521 798.468C743.659 800.249 741.133 801.25 738.5 801.25ZM760.839 815.31C760.795 809.704 758.45 804.339 754.311 800.371C753.53 799.626 752.701 798.928 751.829 798.281C753.008 796.109 753.582 793.683 753.496 791.237C753.41 788.791 752.668 786.407 751.34 784.316C750.012 782.224 748.143 780.495 745.914 779.295C743.684 778.095 741.17 777.465 738.612 777.465C736.054 777.465 733.539 778.095 731.31 779.295C729.081 780.495 727.212 782.224 725.884 784.316C724.556 786.407 723.813 788.791 723.727 791.237C723.641 793.683 724.216 796.109 725.394 798.281C722.575 800.235 720.272 802.792 718.669 805.749C717.066 808.705 716.207 811.979 716.161 815.31C712.369 811.196 709.899 806.123 709.046 800.7C708.193 795.276 708.994 789.732 711.352 784.733C713.711 779.734 717.527 775.492 722.342 772.517C727.157 769.542 732.768 767.959 738.5 767.959C744.232 767.959 749.843 769.542 754.658 772.517C759.473 775.492 763.289 779.734 765.648 784.733C768.006 789.732 768.807 795.276 767.954 800.7C767.101 806.123 764.631 811.196 760.839 815.31Z" fill="black"/>
</g>
</g>
</g>
<g id="Expanded_4">
<path id="Vector_15" d="M500 387.286C492.71 387.286 485.584 389.41 479.523 393.389C473.462 397.368 468.738 403.024 465.948 409.641C463.159 416.259 462.429 423.54 463.851 430.565C465.273 437.59 468.784 444.043 473.938 449.107C479.093 454.172 485.66 457.621 492.81 459.018C499.959 460.416 507.37 459.699 514.105 456.958C520.839 454.217 526.596 449.575 530.646 443.62C534.696 437.664 536.857 430.663 536.857 423.5C536.857 413.895 532.974 404.684 526.062 397.893C519.15 391.101 509.775 387.286 500 387.286ZM481.879 447.824C482.381 444.748 483.682 441.852 485.657 439.415C487.631 436.977 490.213 435.082 493.151 433.912C495.266 435.011 497.622 435.586 500.015 435.586C502.408 435.586 504.765 435.011 506.88 433.912C509.829 435.065 512.418 436.96 514.386 439.408C516.353 441.855 517.631 444.768 518.091 447.854C512.847 451.655 506.501 453.706 499.985 453.706C493.468 453.706 487.123 451.655 481.879 447.854V447.824ZM500 429.536C498.178 429.536 496.396 429.005 494.881 428.01C493.366 427.015 492.185 425.601 491.487 423.947C490.79 422.292 490.607 420.472 490.963 418.716C491.318 416.96 492.196 415.346 493.485 414.08C494.773 412.814 496.415 411.952 498.202 411.603C499.99 411.253 501.842 411.432 503.526 412.118C505.21 412.803 506.649 413.963 507.661 415.452C508.674 416.941 509.214 418.692 509.214 420.482C509.214 422.883 508.243 425.186 506.515 426.884C504.787 428.582 502.444 429.536 500 429.536ZM523.312 443.086C522.106 439.512 520.077 436.259 517.384 433.58C515.804 432.061 514.028 430.752 512.101 429.687C513.61 427.79 514.634 425.566 515.089 423.201C515.545 420.836 515.417 418.398 514.718 416.091C514.019 413.784 512.768 411.674 511.071 409.939C509.373 408.204 507.277 406.893 504.958 406.116C502.64 405.339 500.166 405.118 497.742 405.471C495.319 405.825 493.017 406.744 491.029 408.15C489.04 409.556 487.423 411.409 486.312 413.554C485.201 415.7 484.629 418.075 484.643 420.482C484.705 423.771 485.859 426.951 487.929 429.536C482.587 432.459 478.578 437.272 476.719 442.995C472.889 438.615 470.418 433.248 469.6 427.529C468.782 421.811 469.651 415.982 472.104 410.734C474.556 405.487 478.49 401.041 483.437 397.924C488.385 394.807 494.138 393.15 500.015 393.15C505.892 393.15 511.646 394.807 516.594 397.924C521.541 401.041 525.474 405.487 527.927 410.734C530.38 415.982 531.249 421.811 530.431 427.529C529.613 433.248 527.142 438.615 523.312 442.995V443.086ZM582.929 420.482H567.571C566.821 403.911 559.784 388.217 547.847 376.487C535.91 364.758 519.937 357.845 503.071 357.107V342.018C503.071 341.217 502.748 340.45 502.172 339.884C501.596 339.318 500.815 339 500 339C499.185 339 498.404 339.318 497.828 339.884C497.252 340.45 496.929 341.217 496.929 342.018V357.107C480.063 357.845 464.09 364.758 452.153 376.487C440.216 388.217 433.179 403.911 432.429 420.482H417.071C416.257 420.482 415.476 420.8 414.9 421.366C414.324 421.932 414 422.7 414 423.5C414 424.3 414.324 425.068 414.9 425.634C415.476 426.2 416.257 426.518 417.071 426.518H432.429C433.179 443.089 440.216 458.783 452.153 470.513C464.09 482.242 480.063 489.155 496.929 489.893V504.982C496.929 505.783 497.252 506.55 497.828 507.116C498.404 507.682 499.185 508 500 508C500.815 508 501.596 507.682 502.172 507.116C502.748 506.55 503.071 505.783 503.071 504.982V489.893C519.937 489.155 535.91 482.242 547.847 470.513C559.784 458.783 566.821 443.089 567.571 426.518H582.929C583.743 426.518 584.524 426.2 585.1 425.634C585.676 425.068 586 424.3 586 423.5C586 422.7 585.676 421.932 585.1 421.366C584.524 420.8 583.743 420.482 582.929 420.482ZM561.429 420.482H555.286C554.512 407.138 548.758 394.542 539.125 385.104C529.491 375.667 516.655 370.05 503.071 369.329V363.294C518.283 364.022 532.677 370.277 543.46 380.844C554.243 391.411 560.647 405.538 561.429 420.482ZM546.071 426.518H549.143C548.415 438.29 543.327 449.393 534.84 457.732C526.352 466.071 515.052 471.07 503.071 471.786V468.768C503.071 467.967 502.748 467.2 502.172 466.634C501.596 466.068 500.815 465.75 500 465.75C499.185 465.75 498.404 466.068 497.828 466.634C497.252 467.2 496.929 467.967 496.929 468.768V471.786C484.975 471.035 473.712 466.02 465.256 457.684C456.801 449.349 451.735 438.265 451.011 426.518H453.929C454.743 426.518 455.524 426.2 456.1 425.634C456.676 425.068 457 424.3 457 423.5C457 422.7 456.676 421.932 456.1 421.366C455.524 420.8 454.743 420.482 453.929 420.482H451.011C451.771 408.761 456.853 397.715 465.305 389.41C473.757 381.105 485 376.112 496.929 375.365V378.232C496.929 379.033 497.252 379.8 497.828 380.366C498.404 380.932 499.185 381.25 500 381.25C500.815 381.25 501.596 380.932 502.172 380.366C502.748 379.8 503.071 379.033 503.071 378.232V375.365C515.028 376.077 526.307 381.054 534.791 389.362C543.275 397.671 548.379 408.737 549.143 420.482H546.071C545.257 420.482 544.476 420.8 543.9 421.366C543.324 421.932 543 422.7 543 423.5C543 424.3 543.324 425.068 543.9 425.634C544.476 426.2 545.257 426.518 546.071 426.518ZM496.929 363.294V369.329C483.372 370.086 470.573 375.718 460.972 385.152C451.37 394.586 445.638 407.162 444.868 420.482H438.725C439.503 405.562 445.885 391.456 456.636 380.893C467.388 370.329 481.744 364.058 496.929 363.294ZM438.725 426.518H444.868C445.602 439.865 451.318 452.477 460.923 461.942C470.528 471.408 483.347 477.061 496.929 477.821V483.857C481.719 483.089 467.342 476.797 456.587 466.202C445.832 455.607 439.466 441.464 438.725 426.518ZM503.071 483.857V477.821C516.68 477.097 529.537 471.459 539.174 461.991C548.811 452.522 554.549 439.889 555.286 426.518H561.429C560.684 441.489 554.297 455.652 543.51 466.251C532.723 476.85 518.308 483.126 503.071 483.857Z" fill="black"/>
</g>
<g id="Expanded_5">
<path id="Vector_16" d="M326.661 791.126C324.769 789.298 322.651 787.708 320.355 786.394C321.878 784.229 322.695 781.664 322.696 779.036V769C322.696 764.173 320.734 759.544 317.241 756.131C313.748 752.717 309.011 750.8 304.071 750.8C299.132 750.8 294.394 752.717 290.902 756.131C287.409 759.544 285.446 764.173 285.446 769V779.036C285.448 781.664 286.264 784.229 287.788 786.394C284.841 788.085 282.199 790.237 279.965 792.764C279.375 788.387 277.177 784.368 273.779 781.458C270.382 778.547 266.018 776.942 261.5 776.942C256.982 776.942 252.618 778.547 249.221 781.458C245.823 784.368 243.625 788.387 243.035 792.764C242.529 792.192 242.05 791.646 241.518 791.126C239.626 789.298 237.508 787.708 235.212 786.394C236.736 784.229 237.552 781.664 237.554 779.036V769C237.554 764.173 235.591 759.544 232.098 756.131C228.606 752.717 223.868 750.8 218.929 750.8C213.989 750.8 209.252 752.717 205.759 756.131C202.266 759.544 200.304 764.173 200.304 769V779.036C200.305 781.664 201.122 784.229 202.645 786.394C197.883 789.153 193.936 793.075 191.194 797.775C188.451 802.474 187.006 807.79 187 813.2V821C187 824.448 188.402 827.754 190.897 830.192C193.391 832.63 196.775 834 200.304 834H230.024C229.725 835.718 229.573 837.457 229.571 839.2V847C229.571 850.448 230.973 853.754 233.468 856.192C235.963 858.63 239.347 860 242.875 860H280.125C283.653 860 287.037 858.63 289.532 856.192C292.027 853.754 293.429 850.448 293.429 847V839.2C293.417 837.457 293.257 835.717 292.95 834H322.696C326.225 834 329.609 832.63 332.103 830.192C334.598 827.754 336 824.448 336 821V813.2C336.003 809.102 335.18 805.043 333.578 801.255C331.975 797.468 329.625 794.026 326.661 791.126ZM291.832 790.138L296.701 793.31C298.877 794.75 301.444 795.519 304.071 795.519C306.699 795.519 309.266 794.75 311.442 793.31L316.311 790.138C317.435 790.708 318.52 791.351 319.557 792.062C317.855 794.55 315.552 796.59 312.851 798.001C310.149 799.411 307.134 800.15 304.071 800.15C301.009 800.15 297.993 799.411 295.292 798.001C292.591 796.59 290.288 794.55 288.586 792.062C289.623 791.351 290.708 790.708 291.832 790.138ZM290.768 769C290.768 765.552 292.169 762.246 294.664 759.808C297.159 757.37 300.543 756 304.071 756C307.6 756 310.984 757.37 313.478 759.808C315.973 762.246 317.375 765.552 317.375 769V779.036C317.375 780.323 317.05 781.59 316.428 782.724C315.806 783.858 314.906 784.824 313.81 785.536L308.488 788.994C307.179 789.844 305.643 790.297 304.071 790.297C302.5 790.297 300.964 789.844 299.655 788.994L294.333 785.536C293.236 784.824 292.337 783.858 291.715 782.724C291.093 781.59 290.767 780.323 290.768 779.036V769ZM249.287 816.164L254.13 819.31C256.305 820.75 258.873 821.519 261.5 821.519C264.127 821.519 266.695 820.75 268.87 819.31L273.739 816.138C274.864 816.708 275.948 817.351 276.985 818.062C275.283 820.545 272.98 822.58 270.282 823.987C267.583 825.394 264.572 826.13 261.513 826.13C258.455 826.13 255.443 825.394 252.745 823.987C250.046 822.58 247.744 820.545 246.041 818.062C247.073 817.351 248.158 816.717 249.287 816.164ZM248.196 795C248.196 791.552 249.598 788.246 252.093 785.808C254.588 783.37 257.972 782 261.5 782C265.028 782 268.412 783.37 270.907 785.808C273.402 788.246 274.804 791.552 274.804 795V805.036C274.804 806.323 274.479 807.59 273.857 808.724C273.235 809.858 272.335 810.824 271.238 811.536L265.917 814.994C264.608 815.844 263.071 816.297 261.5 816.297C259.929 816.297 258.392 815.844 257.083 814.994L251.762 811.536C250.665 810.824 249.765 809.858 249.143 808.724C248.521 807.59 248.196 806.323 248.196 805.036V795ZM206.716 790.164L211.558 793.31C213.734 794.75 216.301 795.519 218.929 795.519C221.556 795.519 224.123 794.75 226.299 793.31L231.168 790.138C232.292 790.708 233.377 791.351 234.414 792.062C232.711 794.545 230.409 796.58 227.71 797.987C225.012 799.394 222 800.13 218.942 800.13C215.883 800.13 212.872 799.394 210.173 797.987C207.475 796.58 205.173 794.545 203.47 792.062C204.502 791.351 205.587 790.717 206.716 790.164ZM205.625 769C205.625 765.552 207.027 762.246 209.522 759.808C212.016 757.37 215.4 756 218.929 756C222.457 756 225.841 757.37 228.336 759.808C230.831 762.246 232.232 765.552 232.232 769V779.036C232.233 780.323 231.907 781.59 231.285 782.724C230.663 783.858 229.764 784.824 228.667 785.536L223.345 788.994C222.036 789.844 220.5 790.297 218.929 790.297C217.357 790.297 215.821 789.844 214.512 788.994L209.19 785.536C208.094 784.824 207.194 783.858 206.572 782.724C205.95 781.59 205.625 780.323 205.625 779.036V769ZM200.304 828.8C198.187 828.8 196.156 827.978 194.659 826.515C193.162 825.053 192.321 823.069 192.321 821V813.2C192.344 806.657 194.89 800.362 199.452 795.572C201.667 798.604 204.592 801.076 207.982 802.781C211.372 804.486 215.129 805.376 218.942 805.376C222.755 805.376 226.512 804.486 229.902 802.781C233.292 801.076 236.216 798.604 238.432 795.572C240.228 797.449 241.726 799.579 242.875 801.89V805.036C242.877 807.664 243.693 810.229 245.216 812.394C238.791 816.116 233.905 821.921 231.407 828.8H200.304ZM288.107 847C288.107 849.069 287.266 851.053 285.769 852.515C284.272 853.978 282.242 854.8 280.125 854.8H242.875C240.758 854.8 238.728 853.978 237.231 852.515C235.734 851.053 234.893 849.069 234.893 847V839.2C234.915 832.657 237.461 826.362 242.024 821.572C244.239 824.604 247.163 827.076 250.553 828.781C253.943 830.486 257.701 831.376 261.513 831.376C265.326 831.376 269.084 830.486 272.474 828.781C275.864 827.076 278.788 824.604 281.003 821.572C285.574 826.355 288.113 832.656 288.107 839.2V847ZM330.679 821C330.679 823.069 329.838 825.053 328.341 826.515C326.844 827.978 324.813 828.8 322.696 828.8H291.593C289.146 821.893 284.247 816.072 277.784 812.394C279.307 810.229 280.123 807.664 280.125 805.036V801.864C281.285 799.559 282.782 797.43 284.568 795.546C286.783 798.583 289.708 801.06 293.101 802.768C296.493 804.477 300.255 805.368 304.071 805.368C307.888 805.368 311.649 804.477 315.042 802.768C318.434 801.06 321.36 798.583 323.574 795.546C328.152 800.335 330.692 806.647 330.679 813.2V821ZM264.161 753.4C264.161 752.71 263.88 752.049 263.381 751.562C262.882 751.074 262.206 750.8 261.5 750.8C259.628 750.786 257.821 750.129 256.394 748.945C254.967 747.761 254.012 746.124 253.695 744.321C253.378 742.518 253.72 740.664 254.66 739.082C255.6 737.5 257.08 736.292 258.839 735.668V732.6C258.839 731.91 259.12 731.249 259.619 730.762C260.118 730.274 260.794 730 261.5 730C262.206 730 262.882 730.274 263.381 730.762C263.88 731.249 264.161 731.91 264.161 732.6V735.2H266.821C267.527 735.2 268.204 735.474 268.703 735.962C269.202 736.449 269.482 737.11 269.482 737.8C269.482 738.49 269.202 739.151 268.703 739.638C268.204 740.126 267.527 740.4 266.821 740.4H261.5C260.794 740.4 260.118 740.674 259.619 741.162C259.12 741.649 258.839 742.31 258.839 743C258.839 743.69 259.12 744.351 259.619 744.838C260.118 745.326 260.794 745.6 261.5 745.6C263.372 745.614 265.179 746.271 266.606 747.455C268.033 748.639 268.988 750.276 269.305 752.079C269.622 753.882 269.28 755.736 268.34 757.318C267.4 758.9 265.92 760.108 264.161 760.732V763.8C264.161 764.49 263.88 765.151 263.381 765.638C262.882 766.126 262.206 766.4 261.5 766.4C260.794 766.4 260.118 766.126 259.619 765.638C259.12 765.151 258.839 764.49 258.839 763.8V761.2H256.179C255.473 761.2 254.796 760.926 254.297 760.438C253.798 759.951 253.518 759.29 253.518 758.6C253.518 757.91 253.798 757.249 254.297 756.762C254.796 756.274 255.473 756 256.179 756H261.5C262.206 756 262.882 755.726 263.381 755.238C263.88 754.751 264.161 754.09 264.161 753.4Z" fill="black"/>
</g>
<path id="arrow" d="M1036.17 660L1006.2 685L990.62 698V685H946V635H990.62V622L1006.2 635L1036.17 660Z" fill="url(#paint3_linear_1_63)"/>
<path id="STANDARD Agreement" d="M1068.31 481.276C1068.2 480.13 1067.71 479.24 1066.85 478.605C1065.98 477.971 1064.82 477.653 1063.34 477.653C1062.33 477.653 1061.49 477.795 1060.8 478.08C1060.1 478.354 1059.57 478.738 1059.2 479.23C1058.84 479.723 1058.66 480.281 1058.66 480.906C1058.65 481.427 1058.75 481.882 1058.99 482.27C1059.24 482.658 1059.57 482.994 1060 483.278C1060.43 483.553 1060.92 483.795 1061.48 484.003C1062.04 484.202 1062.63 484.372 1063.27 484.514L1065.88 485.139C1067.15 485.423 1068.31 485.802 1069.38 486.276C1070.44 486.749 1071.35 487.331 1072.13 488.023C1072.91 488.714 1073.51 489.528 1073.93 490.466C1074.37 491.403 1074.59 492.478 1074.6 493.69C1074.59 495.471 1074.14 497.014 1073.24 498.321C1072.35 499.618 1071.06 500.627 1069.38 501.347C1067.7 502.057 1065.68 502.412 1063.31 502.412C1060.96 502.412 1058.92 502.052 1057.17 501.332C1055.44 500.613 1054.09 499.547 1053.11 498.136C1052.14 496.716 1051.64 494.959 1051.59 492.866H1057.54C1057.61 493.842 1057.89 494.656 1058.38 495.31C1058.88 495.954 1059.55 496.441 1060.38 496.773C1061.23 497.095 1062.18 497.256 1063.24 497.256C1064.28 497.256 1065.18 497.104 1065.95 496.801C1066.73 496.498 1067.33 496.077 1067.76 495.537C1068.18 494.997 1068.39 494.377 1068.39 493.676C1068.39 493.023 1068.2 492.473 1067.81 492.028C1067.43 491.583 1066.88 491.205 1066.14 490.892C1065.41 490.58 1064.51 490.295 1063.45 490.04L1060.28 489.244C1057.83 488.648 1055.89 487.715 1054.47 486.446C1053.05 485.177 1052.35 483.468 1052.36 481.318C1052.35 479.557 1052.82 478.018 1053.76 476.702C1054.72 475.385 1056.03 474.358 1057.7 473.619C1059.37 472.881 1061.26 472.511 1063.38 472.511C1065.54 472.511 1067.42 472.881 1069.03 473.619C1070.65 474.358 1071.91 475.385 1072.81 476.702C1073.71 478.018 1074.18 479.543 1074.2 481.276H1068.31ZM1077.63 477.98V472.909H1101.52V477.98H1092.62V502H1086.54V477.98H1077.63ZM1106.92 502H1100.33L1110.37 472.909H1118.3L1128.32 502H1121.73L1114.45 479.557H1114.22L1106.92 502ZM1106.51 490.565H1122.07V495.366H1106.51V490.565ZM1156.16 472.909V502H1150.85L1138.19 483.69H1137.98V502H1131.83V472.909H1137.22L1149.78 491.205H1150.04V472.909H1156.16ZM1171.55 502H1161.24V472.909H1171.64C1174.56 472.909 1177.08 473.491 1179.19 474.656C1181.31 475.812 1182.93 477.473 1184.07 479.642C1185.21 481.811 1185.78 484.405 1185.78 487.426C1185.78 490.456 1185.21 493.061 1184.07 495.239C1182.93 497.417 1181.3 499.088 1179.17 500.253C1177.04 501.418 1174.51 502 1171.55 502ZM1167.39 496.73H1171.3C1173.11 496.73 1174.64 496.408 1175.88 495.764C1177.13 495.111 1178.07 494.102 1178.7 492.739C1179.33 491.366 1179.65 489.595 1179.65 487.426C1179.65 485.277 1179.33 483.52 1178.7 482.156C1178.07 480.793 1177.14 479.789 1175.9 479.145C1174.66 478.501 1173.13 478.179 1171.31 478.179H1167.39V496.73ZM1193.71 502H1187.12L1197.17 472.909H1205.09L1215.12 502H1208.53L1201.24 479.557H1201.02L1193.71 502ZM1193.3 490.565H1208.87V495.366H1193.3V490.565ZM1218.62 502V472.909H1230.1C1232.3 472.909 1234.17 473.302 1235.72 474.088C1237.29 474.865 1238.48 475.968 1239.29 477.398C1240.11 478.818 1240.53 480.49 1240.53 482.412C1240.53 484.344 1240.11 486.006 1239.28 487.398C1238.44 488.78 1237.23 489.841 1235.65 490.58C1234.08 491.318 1232.18 491.688 1229.94 491.688H1222.26V486.744H1228.95C1230.12 486.744 1231.1 486.583 1231.88 486.261C1232.65 485.939 1233.23 485.456 1233.61 484.812C1234 484.169 1234.19 483.368 1234.19 482.412C1234.19 481.446 1234 480.632 1233.61 479.969C1233.23 479.306 1232.65 478.804 1231.86 478.463C1231.08 478.113 1230.1 477.938 1228.92 477.938H1224.77V502H1218.62ZM1234.33 488.761L1241.56 502H1234.77L1227.7 488.761H1234.33ZM1255.18 502H1244.87V472.909H1255.27C1258.2 472.909 1260.71 473.491 1262.83 474.656C1264.94 475.812 1266.56 477.473 1267.7 479.642C1268.84 481.811 1269.42 484.405 1269.42 487.426C1269.42 490.456 1268.84 493.061 1267.7 495.239C1266.56 497.417 1264.93 499.088 1262.8 500.253C1260.68 501.418 1258.14 502 1255.18 502ZM1251.02 496.73H1254.93C1256.75 496.73 1258.28 496.408 1259.52 495.764C1260.77 495.111 1261.7 494.102 1262.33 492.739C1262.96 491.366 1263.28 489.595 1263.28 487.426C1263.28 485.277 1262.96 483.52 1262.33 482.156C1261.7 480.793 1260.77 479.789 1259.53 479.145C1258.29 478.501 1256.76 478.179 1254.94 478.179H1251.02V496.73ZM1287.41 502H1283.72L1294.4 472.909H1298.04L1308.72 502H1305.02L1296.33 477.511H1296.1L1287.41 502ZM1288.77 490.636H1303.66V493.761H1288.77V490.636ZM1321.6 510.636C1319.98 510.636 1318.59 510.428 1317.43 510.011C1316.26 509.604 1315.29 509.064 1314.51 508.392C1313.75 507.729 1313.14 507.019 1312.68 506.261L1315.35 504.386C1315.65 504.784 1316.04 505.239 1316.5 505.75C1316.97 506.271 1317.6 506.721 1318.41 507.099C1319.22 507.488 1320.29 507.682 1321.6 507.682C1323.36 507.682 1324.82 507.256 1325.96 506.403C1327.11 505.551 1327.68 504.216 1327.68 502.398V497.966H1327.4C1327.15 498.364 1326.8 498.856 1326.35 499.443C1325.9 500.021 1325.26 500.537 1324.41 500.991C1323.58 501.437 1322.45 501.659 1321.03 501.659C1319.27 501.659 1317.69 501.242 1316.29 500.409C1314.9 499.576 1313.79 498.364 1312.98 496.773C1312.17 495.182 1311.77 493.25 1311.77 490.977C1311.77 488.742 1312.17 486.796 1312.95 485.139C1313.74 483.473 1314.83 482.185 1316.23 481.276C1317.63 480.357 1319.25 479.898 1321.09 479.898C1322.51 479.898 1323.64 480.134 1324.47 480.608C1325.31 481.072 1325.96 481.602 1326.4 482.199C1326.86 482.786 1327.21 483.269 1327.45 483.648H1327.79V480.182H1331.03V502.625C1331.03 504.5 1330.61 506.025 1329.75 507.199C1328.91 508.383 1327.78 509.249 1326.35 509.798C1324.93 510.357 1323.34 510.636 1321.6 510.636ZM1321.49 498.648C1322.83 498.648 1323.97 498.34 1324.9 497.724C1325.83 497.109 1326.53 496.223 1327.01 495.068C1327.5 493.913 1327.74 492.53 1327.74 490.92C1327.74 489.348 1327.5 487.961 1327.03 486.759C1326.55 485.556 1325.85 484.614 1324.93 483.932C1324 483.25 1322.85 482.909 1321.49 482.909C1320.07 482.909 1318.88 483.269 1317.94 483.989C1317 484.708 1316.29 485.674 1315.82 486.886C1315.36 488.098 1315.12 489.443 1315.12 490.92C1315.12 492.436 1315.36 493.776 1315.83 494.94C1316.32 496.096 1317.03 497.005 1317.97 497.668C1318.91 498.321 1320.09 498.648 1321.49 498.648ZM1337.17 502V480.182H1340.41V483.477H1340.64C1341.03 482.398 1341.75 481.522 1342.79 480.849C1343.84 480.177 1345.01 479.841 1346.32 479.841C1346.56 479.841 1346.87 479.846 1347.24 479.855C1347.61 479.865 1347.89 479.879 1348.08 479.898V483.307C1347.97 483.278 1347.7 483.236 1347.3 483.179C1346.9 483.113 1346.48 483.08 1346.03 483.08C1344.97 483.08 1344.03 483.302 1343.19 483.747C1342.37 484.183 1341.72 484.789 1341.23 485.565C1340.76 486.332 1340.52 487.208 1340.52 488.193V502H1337.17ZM1360.54 502.455C1358.43 502.455 1356.62 501.991 1355.1 501.062C1353.58 500.125 1352.41 498.818 1351.59 497.142C1350.77 495.456 1350.37 493.496 1350.37 491.261C1350.37 489.027 1350.77 487.057 1351.59 485.352C1352.41 483.638 1353.56 482.303 1355.02 481.347C1356.5 480.381 1358.23 479.898 1360.2 479.898C1361.33 479.898 1362.45 480.087 1363.56 480.466C1364.67 480.845 1365.68 481.46 1366.59 482.312C1367.5 483.155 1368.22 484.273 1368.76 485.665C1369.3 487.057 1369.57 488.771 1369.57 490.807V492.227H1352.75V489.33H1366.16C1366.16 488.098 1365.92 487 1365.42 486.034C1364.94 485.068 1364.25 484.306 1363.35 483.747C1362.46 483.188 1361.41 482.909 1360.2 482.909C1358.86 482.909 1357.7 483.241 1356.73 483.903C1355.76 484.557 1355.02 485.409 1354.5 486.46C1353.98 487.511 1353.72 488.638 1353.72 489.841V491.773C1353.72 493.42 1354 494.817 1354.57 495.963C1355.15 497.099 1355.95 497.966 1356.97 498.562C1357.99 499.15 1359.18 499.443 1360.54 499.443C1361.42 499.443 1362.21 499.32 1362.92 499.074C1363.64 498.818 1364.26 498.439 1364.78 497.938C1365.3 497.426 1365.71 496.792 1365.99 496.034L1369.23 496.943C1368.89 498.042 1368.32 499.008 1367.51 499.841C1366.71 500.665 1365.71 501.309 1364.53 501.773C1363.34 502.227 1362.01 502.455 1360.54 502.455ZM1383.82 502.455C1381.72 502.455 1379.9 501.991 1378.38 501.062C1376.86 500.125 1375.69 498.818 1374.87 497.142C1374.05 495.456 1373.65 493.496 1373.65 491.261C1373.65 489.027 1374.05 487.057 1374.87 485.352C1375.69 483.638 1376.84 482.303 1378.31 481.347C1379.78 480.381 1381.51 479.898 1383.48 479.898C1384.61 479.898 1385.74 480.087 1386.84 480.466C1387.95 480.845 1388.96 481.46 1389.87 482.312C1390.78 483.155 1391.5 484.273 1392.04 485.665C1392.58 487.057 1392.85 488.771 1392.85 490.807V492.227H1376.03V489.33H1389.44C1389.44 488.098 1389.2 487 1388.7 486.034C1388.22 485.068 1387.53 484.306 1386.63 483.747C1385.74 483.188 1384.69 482.909 1383.48 482.909C1382.14 482.909 1380.99 483.241 1380.01 483.903C1379.04 484.557 1378.3 485.409 1377.78 486.46C1377.26 487.511 1377 488.638 1377 489.841V491.773C1377 493.42 1377.28 494.817 1377.85 495.963C1378.43 497.099 1379.23 497.966 1380.25 498.562C1381.27 499.15 1382.46 499.443 1383.82 499.443C1384.7 499.443 1385.49 499.32 1386.2 499.074C1386.92 498.818 1387.54 498.439 1388.06 497.938C1388.59 497.426 1388.99 496.792 1389.27 496.034L1392.51 496.943C1392.17 498.042 1391.6 499.008 1390.79 499.841C1389.99 500.665 1388.99 501.309 1387.81 501.773C1386.63 502.227 1385.29 502.455 1383.82 502.455ZM1397.95 502V480.182H1401.19V483.591H1401.47C1401.93 482.426 1402.66 481.522 1403.68 480.878C1404.69 480.224 1405.91 479.898 1407.33 479.898C1408.77 479.898 1409.96 480.224 1410.92 480.878C1411.89 481.522 1412.64 482.426 1413.18 483.591H1413.41C1413.96 482.464 1414.8 481.569 1415.92 480.906C1417.04 480.234 1418.38 479.898 1419.94 479.898C1421.89 479.898 1423.49 480.509 1424.73 481.73C1425.97 482.942 1426.59 484.831 1426.59 487.398V502H1423.24V487.398C1423.24 485.788 1422.79 484.637 1421.91 483.946C1421.03 483.255 1420 482.909 1418.8 482.909C1417.27 482.909 1416.08 483.373 1415.24 484.301C1414.4 485.22 1413.97 486.384 1413.97 487.795V502H1410.56V487.057C1410.56 485.816 1410.16 484.817 1409.36 484.06C1408.55 483.293 1407.52 482.909 1406.25 482.909C1405.38 482.909 1404.56 483.141 1403.8 483.605C1403.06 484.069 1402.45 484.713 1401.99 485.537C1401.53 486.351 1401.3 487.294 1401.3 488.364V502H1397.95ZM1441.86 502.455C1439.76 502.455 1437.95 501.991 1436.42 501.062C1434.91 500.125 1433.74 498.818 1432.92 497.142C1432.1 495.456 1431.69 493.496 1431.69 491.261C1431.69 489.027 1432.1 487.057 1432.92 485.352C1433.74 483.638 1434.89 482.303 1436.35 481.347C1437.83 480.381 1439.55 479.898 1441.52 479.898C1442.66 479.898 1443.78 480.087 1444.89 480.466C1446 480.845 1447.01 481.46 1447.92 482.312C1448.82 483.155 1449.55 484.273 1450.09 485.665C1450.63 487.057 1450.9 488.771 1450.9 490.807V492.227H1434.08V489.33H1447.49C1447.49 488.098 1447.24 487 1446.75 486.034C1446.27 485.068 1445.58 484.306 1444.68 483.747C1443.79 483.188 1442.74 482.909 1441.52 482.909C1440.19 482.909 1439.03 483.241 1438.06 483.903C1437.09 484.557 1436.35 485.409 1435.83 486.46C1435.31 487.511 1435.05 488.638 1435.05 489.841V491.773C1435.05 493.42 1435.33 494.817 1435.9 495.963C1436.48 497.099 1437.28 497.966 1438.3 498.562C1439.32 499.15 1440.51 499.443 1441.86 499.443C1442.75 499.443 1443.54 499.32 1444.25 499.074C1444.97 498.818 1445.59 498.439 1446.11 497.938C1446.63 497.426 1447.03 496.792 1447.32 496.034L1450.56 496.943C1450.22 498.042 1449.64 499.008 1448.84 499.841C1448.03 500.665 1447.04 501.309 1445.86 501.773C1444.67 502.227 1443.34 502.455 1441.86 502.455ZM1459.35 488.875V502H1456V480.182H1459.24V483.591H1459.52C1460.03 482.483 1460.81 481.593 1461.85 480.92C1462.89 480.239 1464.24 479.898 1465.88 479.898C1467.36 479.898 1468.65 480.201 1469.76 480.807C1470.87 481.403 1471.73 482.312 1472.35 483.534C1472.96 484.746 1473.27 486.28 1473.27 488.136V502H1469.92V488.364C1469.92 486.65 1469.47 485.314 1468.58 484.358C1467.69 483.392 1466.47 482.909 1464.92 482.909C1463.85 482.909 1462.89 483.141 1462.05 483.605C1461.22 484.069 1460.56 484.746 1460.07 485.636C1459.59 486.527 1459.35 487.606 1459.35 488.875ZM1488.88 480.182V483.023H1477.58V480.182H1488.88ZM1480.87 474.955H1484.23V495.75C1484.23 496.697 1484.36 497.407 1484.64 497.881C1484.92 498.345 1485.28 498.657 1485.72 498.818C1486.16 498.97 1486.63 499.045 1487.12 499.045C1487.49 499.045 1487.8 499.027 1488.03 498.989C1488.27 498.941 1488.46 498.903 1488.6 498.875L1489.28 501.886C1489.06 501.972 1488.74 502.057 1488.33 502.142C1487.92 502.237 1487.41 502.284 1486.78 502.284C1485.84 502.284 1484.91 502.08 1484 501.673C1483.1 501.266 1482.35 500.646 1481.75 499.812C1481.17 498.979 1480.87 497.928 1480.87 496.659V474.955Z" fill="black"/>
<path id="ELEVATE RESULTS" d="M1456.53 504V474.909H1476.13V479.98H1462.68V486.912H1475.12V491.983H1462.68V498.929H1476.19V504H1456.53ZM1481.02 504V474.909H1487.17V498.929H1499.64V504H1481.02ZM1503.72 504V474.909H1523.32V479.98H1509.87V486.912H1522.31V491.983H1509.87V498.929H1523.38V504H1503.72ZM1533.46 474.909L1540.5 497.011H1540.76L1547.81 474.909H1554.63L1544.6 504H1536.67L1526.63 474.909H1533.46ZM1559.28 504H1552.69L1562.73 474.909H1570.65L1580.68 504H1574.09L1566.81 481.557H1566.58L1559.28 504ZM1558.87 492.565H1574.43V497.366H1558.87V492.565ZM1579.52 479.98V474.909H1603.41V479.98H1594.51V504H1588.43V479.98H1579.52ZM1607.35 504V474.909H1626.95V479.98H1613.5V486.912H1625.94V491.983H1613.5V498.929H1627.01V504H1607.35ZM1641.1 504V474.909H1652.58C1654.77 474.909 1656.65 475.302 1658.2 476.088C1659.76 476.865 1660.95 477.968 1661.77 479.398C1662.59 480.818 1663 482.49 1663 484.412C1663 486.344 1662.59 488.006 1661.75 489.398C1660.92 490.78 1659.71 491.841 1658.13 492.58C1656.56 493.318 1654.65 493.688 1652.42 493.688H1644.74V488.744H1651.43C1652.6 488.744 1653.58 488.583 1654.35 488.261C1655.13 487.939 1655.71 487.456 1656.08 486.812C1656.47 486.169 1656.67 485.368 1656.67 484.412C1656.67 483.446 1656.47 482.632 1656.08 481.969C1655.71 481.306 1655.12 480.804 1654.34 480.463C1653.56 480.113 1652.58 479.938 1651.4 479.938H1647.25V504H1641.1ZM1656.81 490.761L1664.04 504H1657.25L1650.18 490.761H1656.81ZM1667.35 504V474.909H1686.95V479.98H1673.5V486.912H1685.94V491.983H1673.5V498.929H1687.01V504H1667.35ZM1707.62 483.276C1707.51 482.13 1707.02 481.24 1706.16 480.605C1705.3 479.971 1704.13 479.653 1702.65 479.653C1701.65 479.653 1700.8 479.795 1700.11 480.08C1699.42 480.354 1698.89 480.738 1698.52 481.23C1698.16 481.723 1697.98 482.281 1697.98 482.906C1697.96 483.427 1698.07 483.882 1698.3 484.27C1698.55 484.658 1698.89 484.994 1699.31 485.278C1699.74 485.553 1700.23 485.795 1700.79 486.003C1701.35 486.202 1701.95 486.372 1702.58 486.514L1705.19 487.139C1706.46 487.423 1707.63 487.802 1708.69 488.276C1709.75 488.749 1710.67 489.331 1711.44 490.023C1712.22 490.714 1712.82 491.528 1713.25 492.466C1713.68 493.403 1713.91 494.478 1713.91 495.69C1713.91 497.471 1713.45 499.014 1712.55 500.321C1711.66 501.618 1710.37 502.627 1708.69 503.347C1707.01 504.057 1704.99 504.412 1702.62 504.412C1700.27 504.412 1698.23 504.052 1696.49 503.332C1694.75 502.613 1693.4 501.547 1692.42 500.136C1691.46 498.716 1690.95 496.959 1690.9 494.866H1696.86C1696.92 495.842 1697.2 496.656 1697.69 497.31C1698.2 497.954 1698.86 498.441 1699.7 498.773C1700.54 499.095 1701.49 499.256 1702.55 499.256C1703.59 499.256 1704.5 499.104 1705.26 498.801C1706.04 498.498 1706.64 498.077 1707.07 497.537C1707.49 496.997 1707.71 496.377 1707.71 495.676C1707.71 495.023 1707.51 494.473 1707.12 494.028C1706.75 493.583 1706.19 493.205 1705.45 492.892C1704.72 492.58 1703.82 492.295 1702.76 492.04L1699.6 491.244C1697.14 490.648 1695.21 489.715 1693.79 488.446C1692.37 487.177 1691.66 485.468 1691.67 483.318C1691.66 481.557 1692.13 480.018 1693.08 478.702C1694.03 477.385 1695.34 476.358 1697.01 475.619C1698.68 474.881 1700.57 474.511 1702.69 474.511C1704.85 474.511 1706.74 474.881 1708.35 475.619C1709.97 476.358 1711.23 477.385 1712.12 478.702C1713.02 480.018 1713.49 481.543 1713.52 483.276H1707.62ZM1736.02 474.909H1742.17V493.801C1742.17 495.922 1741.66 497.778 1740.65 499.369C1739.65 500.96 1738.24 502.201 1736.43 503.091C1734.62 503.972 1732.52 504.412 1730.11 504.412C1727.7 504.412 1725.58 503.972 1723.78 503.091C1721.97 502.201 1720.56 500.96 1719.56 499.369C1718.55 497.778 1718.05 495.922 1718.05 493.801V474.909H1724.2V493.276C1724.2 494.384 1724.44 495.368 1724.93 496.23C1725.42 497.092 1726.11 497.769 1727 498.261C1727.89 498.754 1728.93 499 1730.11 499C1731.3 499 1732.34 498.754 1733.22 498.261C1734.11 497.769 1734.8 497.092 1735.28 496.23C1735.77 495.368 1736.02 494.384 1736.02 493.276V474.909ZM1747.23 504V474.909H1753.38V498.929H1765.85V504H1747.23ZM1765.19 479.98V474.909H1789.08V479.98H1780.17V504H1774.09V479.98H1765.19ZM1808.79 483.276C1808.68 482.13 1808.19 481.24 1807.33 480.605C1806.47 479.971 1805.3 479.653 1803.82 479.653C1802.82 479.653 1801.97 479.795 1801.28 480.08C1800.59 480.354 1800.06 480.738 1799.69 481.23C1799.33 481.723 1799.15 482.281 1799.15 482.906C1799.13 483.427 1799.24 483.882 1799.48 484.27C1799.72 484.658 1800.06 484.994 1800.48 485.278C1800.91 485.553 1801.4 485.795 1801.96 486.003C1802.52 486.202 1803.12 486.372 1803.75 486.514L1806.37 487.139C1807.63 487.423 1808.8 487.802 1809.86 488.276C1810.92 488.749 1811.84 489.331 1812.62 490.023C1813.39 490.714 1813.99 491.528 1814.42 492.466C1814.85 493.403 1815.08 494.478 1815.09 495.69C1815.08 497.471 1814.62 499.014 1813.72 500.321C1812.83 501.618 1811.54 502.627 1809.86 503.347C1808.18 504.057 1806.16 504.412 1803.79 504.412C1801.45 504.412 1799.4 504.052 1797.66 503.332C1795.92 502.613 1794.57 501.547 1793.6 500.136C1792.63 498.716 1792.12 496.959 1792.08 494.866H1798.03C1798.09 495.842 1798.37 496.656 1798.87 497.31C1799.37 497.954 1800.03 498.441 1800.87 498.773C1801.71 499.095 1802.66 499.256 1803.72 499.256C1804.76 499.256 1805.67 499.104 1806.44 498.801C1807.21 498.498 1807.81 498.077 1808.24 497.537C1808.67 496.997 1808.88 496.377 1808.88 495.676C1808.88 495.023 1808.69 494.473 1808.3 494.028C1807.92 493.583 1807.36 493.205 1806.62 492.892C1805.89 492.58 1805 492.295 1803.94 492.04L1800.77 491.244C1798.32 490.648 1796.38 489.715 1794.96 488.446C1793.54 487.177 1792.83 485.468 1792.84 483.318C1792.83 481.557 1793.3 480.018 1794.25 478.702C1795.21 477.385 1796.52 476.358 1798.18 475.619C1799.85 474.881 1801.74 474.511 1803.87 474.511C1806.02 474.511 1807.91 474.881 1809.52 475.619C1811.14 476.358 1812.4 477.385 1813.3 478.702C1814.2 480.018 1814.66 481.543 1814.69 483.276H1808.79Z" fill="black"/>
</g>
<defs>
<linearGradient id="paint0_linear_1_63" x1="130.51" y1="795.02" x2="401.38" y2="795.02" gradientUnits="userSpaceOnUse">
<stop stop-color="#F06292"/>
<stop offset="1" stop-color="#EF5350"/>
</linearGradient>
<linearGradient id="paint1_linear_1_63" x1="874.7" y1="797.88" x2="603.84" y2="797.88" gradientUnits="userSpaceOnUse">
<stop stop-color="#9CCC65"/>
<stop offset="1" stop-color="#009688"/>
</linearGradient>
<linearGradient id="paint2_linear_1_63" x1="635.45" y1="423.96" x2="364.59" y2="423.96" gradientUnits="userSpaceOnUse">
<stop stop-color="#2196F3"/>
<stop offset="1" stop-color="#3F51B5"/>
</linearGradient>
<linearGradient id="paint3_linear_1_63" x1="971.68" y1="660" x2="1046.66" y2="660" gradientUnits="userSpaceOnUse">
<stop stop-color="#F4F4F4"/>
<stop offset="1" stop-color="#CFD8DC"/>
</linearGradient>
<clipPath id="clip0_1_63">
<rect width="1920" height="1080" fill="white"/>
</clipPath>
<clipPath id="clip1_1_63">
<rect width="1920" height="1080" fill="white"/>
</clipPath>
</defs>
</svg>

