<svg xmlns="http://www.w3.org/2000/svg" xmlns:xlink="http://www.w3.org/1999/xlink" width="100" zoomAndPan="magnify" viewBox="0 0 75 30.000001" height="40" preserveAspectRatio="xMidYMid meet" version="1.0"><path fill="#422466" d="M 42.179688 13.808594 L 42.179688 16.601562 L 41.371094 16.601562 L 41.371094 16.191406 C 41.285156 16.335938 41.171875 16.449219 41.023438 16.53125 C 40.871094 16.609375 40.710938 16.648438 40.539062 16.644531 C 40.1875 16.644531 39.929688 16.546875 39.753906 16.351562 C 39.582031 16.160156 39.496094 15.863281 39.496094 15.472656 L 39.496094 13.808594 L 40.328125 13.808594 L 40.328125 15.488281 C 40.328125 15.824219 40.472656 15.996094 40.765625 15.996094 C 40.9375 15.996094 41.078125 15.9375 41.183594 15.820312 C 41.289062 15.699219 41.34375 15.546875 41.34375 15.355469 L 41.34375 13.808594 Z M 42.179688 13.808594 " fill-opacity="1" fill-rule="nonzero"/><path fill="#422466" d="M 45.359375 12.53125 L 45.359375 16.601562 L 44.539062 16.601562 L 44.539062 16.1875 C 44.449219 16.335938 44.332031 16.449219 44.179688 16.523438 C 44.015625 16.609375 43.839844 16.648438 43.65625 16.644531 C 43.425781 16.648438 43.210938 16.589844 43.015625 16.460938 C 42.828125 16.339844 42.683594 16.164062 42.578125 15.941406 C 42.472656 15.71875 42.421875 15.464844 42.421875 15.179688 C 42.421875 14.894531 42.472656 14.640625 42.578125 14.421875 C 42.683594 14.203125 42.828125 14.035156 43.011719 13.914062 C 43.199219 13.792969 43.414062 13.734375 43.65625 13.734375 C 43.835938 13.734375 44.007812 13.773438 44.167969 13.851562 C 44.320312 13.929688 44.4375 14.039062 44.527344 14.179688 L 44.527344 12.53125 Z M 44.371094 15.800781 C 44.484375 15.65625 44.539062 15.453125 44.539062 15.191406 C 44.539062 14.929688 44.480469 14.726562 44.371094 14.585938 C 44.257812 14.445312 44.101562 14.375 43.898438 14.375 C 43.691406 14.375 43.53125 14.445312 43.417969 14.582031 C 43.304688 14.722656 43.25 14.921875 43.246094 15.179688 C 43.246094 15.445312 43.304688 15.648438 43.417969 15.792969 C 43.53125 15.9375 43.691406 16.011719 43.898438 16.011719 C 44.105469 16.011719 44.261719 15.941406 44.371094 15.800781 Z M 44.371094 15.800781 " fill-opacity="1" fill-rule="nonzero"/><path fill="#422466" d="M 48.539062 13.808594 L 48.539062 16.601562 L 47.714844 16.601562 L 47.714844 16.1875 C 47.628906 16.335938 47.507812 16.449219 47.359375 16.523438 C 47.191406 16.609375 47.019531 16.648438 46.835938 16.644531 C 46.589844 16.644531 46.378906 16.585938 46.191406 16.46875 C 46.007812 16.351562 45.859375 16.183594 45.757812 15.964844 C 45.652344 15.746094 45.597656 15.492188 45.597656 15.207031 C 45.597656 14.921875 45.652344 14.664062 45.757812 14.441406 C 45.859375 14.21875 46.007812 14.042969 46.195312 13.921875 C 46.390625 13.792969 46.601562 13.734375 46.835938 13.734375 C 47.019531 13.734375 47.195312 13.777344 47.359375 13.863281 C 47.507812 13.945312 47.628906 14.058594 47.714844 14.203125 L 47.714844 13.808594 Z M 47.550781 15.800781 C 47.660156 15.664062 47.714844 15.460938 47.714844 15.195312 C 47.714844 14.929688 47.660156 14.726562 47.550781 14.585938 C 47.441406 14.445312 47.28125 14.375 47.078125 14.375 C 46.871094 14.375 46.710938 14.449219 46.597656 14.59375 C 46.484375 14.742188 46.425781 14.945312 46.425781 15.207031 C 46.425781 15.46875 46.480469 15.667969 46.59375 15.804688 C 46.707031 15.941406 46.867188 16.011719 47.078125 16.011719 C 47.28125 16.011719 47.441406 15.941406 47.550781 15.800781 Z M 47.550781 15.800781 " fill-opacity="1" fill-rule="nonzero"/><path fill="#422466" d="M 39.328125 16.640625 L 38.292969 16.640625 L 37.183594 15.375 L 37.183594 16.640625 L 36.339844 16.640625 L 36.339844 12.53125 L 37.183594 12.53125 L 37.183594 15.027344 L 38.246094 13.816406 L 39.257812 13.816406 L 38.054688 15.171875 Z M 39.328125 16.640625 " fill-opacity="1" fill-rule="nonzero"/><path fill="#422466" d="M 34.03125 16.640625 L 32.414062 14.78125 L 33.296875 16.640625 L 32.683594 16.640625 L 31.785156 14.742188 L 32.160156 16.640625 L 31.78125 16.640625 L 31.40625 14.742188 L 31.40625 16.640625 L 31.261719 16.640625 L 31.261719 12.53125 L 31.40625 12.53125 L 31.40625 14.582031 L 31.789062 12.53125 L 32.164062 12.53125 L 31.78125 14.589844 L 32.699219 12.53125 L 33.304688 12.53125 L 32.390625 14.582031 L 34.050781 12.53125 L 35 12.53125 L 33.28125 14.65625 L 35.007812 16.640625 Z M 34.03125 16.640625 " fill-opacity="1" fill-rule="nonzero"/><path fill="#422466" d="M 49.691406 16.140625 C 49.691406 16.265625 49.648438 16.375 49.558594 16.464844 C 49.46875 16.550781 49.363281 16.597656 49.234375 16.597656 C 49.109375 16.597656 49 16.550781 48.914062 16.464844 C 48.824219 16.375 48.777344 16.265625 48.777344 16.140625 C 48.777344 16.015625 48.824219 15.90625 48.914062 15.816406 C 49 15.730469 49.109375 15.683594 49.234375 15.683594 C 49.363281 15.683594 49.46875 15.730469 49.558594 15.816406 C 49.648438 15.90625 49.691406 16.015625 49.691406 16.140625 Z M 49.691406 16.140625 " fill-opacity="1" fill-rule="nonzero"/></svg>