<svg xmlns="http://www.w3.org/2000/svg" xmlns:xlink="http://www.w3.org/1999/xlink" width="150" zoomAndPan="magnify" viewBox="0 0 375 149.999998" height="50" preserveAspectRatio="xMidYMid meet" version="1.0"><defs><g/></defs><g fill="#00592e" fill-opacity="1"><g transform="translate(-2.236655, 129.012453)"><g><path d="M 84.296875 -95.640625 C 85.660156 -95.640625 86.34375 -94.957031 86.34375 -93.59375 L 86.34375 -2.046875 C 86.34375 -0.679688 85.660156 0 84.296875 0 L 67.5 0 C 66.40625 0 65.582031 -0.453125 65.03125 -1.359375 L 28.28125 -66.265625 L 28.28125 -2.046875 C 28.28125 -0.679688 27.597656 0 26.234375 0 L 11.609375 0 C 10.242188 0 9.5625 -0.679688 9.5625 -2.046875 L 9.5625 -93.59375 C 9.5625 -94.957031 10.242188 -95.640625 11.609375 -95.640625 L 28.421875 -95.640625 C 29.515625 -95.640625 30.332031 -95.179688 30.875 -94.265625 L 67.625 -29.375 L 67.625 -93.59375 C 67.625 -94.957031 68.304688 -95.640625 69.671875 -95.640625 Z M 84.296875 -95.640625 "/></g></g></g><g fill="#000000" fill-opacity="1"><g transform="translate(87.123492, 129.012453)"><g><path d="M 73.640625 -99.734375 C 75.003906 -99.734375 75.6875 -99.050781 75.6875 -97.6875 L 75.6875 -2.046875 C 75.6875 -0.679688 75.003906 0 73.640625 0 L 61.75 0 C 60.570312 0 59.890625 -0.679688 59.703125 -2.046875 L 58.890625 -8.609375 C 56.703125 -5.785156 53.921875 -3.484375 50.546875 -1.703125 C 47.179688 0.0664062 43.222656 0.953125 38.671875 0.953125 C 32.378906 0.953125 26.796875 -0.570312 21.921875 -3.625 C 17.054688 -6.675781 13.207031 -10.796875 10.375 -15.984375 C 7.550781 -21.171875 6.140625 -26.957031 6.140625 -33.34375 C 6.140625 -39.894531 7.550781 -45.8125 10.375 -51.09375 C 13.207031 -56.375 17.054688 -60.5625 21.921875 -63.65625 C 26.796875 -66.757812 32.378906 -68.3125 38.671875 -68.3125 C 42.765625 -68.3125 46.378906 -67.535156 49.515625 -65.984375 C 52.660156 -64.441406 55.375 -62.347656 57.65625 -59.703125 L 57.65625 -97.6875 C 57.65625 -99.050781 58.335938 -99.734375 59.703125 -99.734375 Z M 40.71875 -15.4375 C 45.8125 -15.4375 49.929688 -17.164062 53.078125 -20.625 C 56.222656 -24.09375 57.796875 -28.375 57.796875 -33.46875 C 57.796875 -36.84375 57.066406 -39.914062 55.609375 -42.6875 C 54.148438 -45.46875 52.144531 -47.703125 49.59375 -49.390625 C 47.039062 -51.078125 44.082031 -51.921875 40.71875 -51.921875 C 35.707031 -51.921875 31.582031 -50.1875 28.34375 -46.71875 C 25.113281 -43.257812 23.5 -38.84375 23.5 -33.46875 C 23.5 -28.28125 25.113281 -23.976562 28.34375 -20.5625 C 31.582031 -17.144531 35.707031 -15.4375 40.71875 -15.4375 Z M 40.71875 -15.4375 "/></g></g></g><g fill="#000000" fill-opacity="1"><g transform="translate(164.451166, 129.012453)"><g><path d="M 71.734375 -35.25 C 71.734375 -32.601562 71.457031 -30.597656 70.90625 -29.234375 C 70.363281 -27.867188 69.046875 -27.1875 66.953125 -27.1875 L 24.046875 -27.1875 C 25.046875 -22.90625 27.1875 -19.578125 30.46875 -17.203125 C 33.75 -14.835938 37.984375 -13.65625 43.171875 -13.65625 C 48.273438 -13.65625 53.007812 -15.207031 57.375 -18.3125 C 58.5625 -19.039062 59.566406 -18.992188 60.390625 -18.171875 L 66.40625 -12.296875 C 67.40625 -11.390625 67.359375 -10.390625 66.265625 -9.296875 C 63.078125 -6.109375 59.34375 -3.601562 55.0625 -1.78125 C 50.78125 0.0390625 46.222656 0.953125 41.390625 0.953125 C 34.472656 0.953125 28.347656 -0.59375 23.015625 -3.6875 C 17.691406 -6.78125 13.546875 -10.96875 10.578125 -16.25 C 7.617188 -21.539062 6.140625 -27.375 6.140625 -33.75 C 6.140625 -40.21875 7.597656 -46.046875 10.515625 -51.234375 C 13.429688 -56.421875 17.4375 -60.5625 22.53125 -63.65625 C 27.632812 -66.757812 33.421875 -68.3125 39.890625 -68.3125 C 46.359375 -68.3125 51.984375 -66.785156 56.765625 -63.734375 C 61.546875 -60.679688 65.234375 -56.648438 67.828125 -51.640625 C 70.429688 -46.628906 71.734375 -41.164062 71.734375 -35.25 Z M 40.03125 -52.875 C 35.9375 -52.875 32.40625 -51.6875 29.4375 -49.3125 C 26.476562 -46.945312 24.585938 -43.488281 23.765625 -38.9375 L 55.75 -38.9375 C 55.101562 -43.488281 53.320312 -46.945312 50.40625 -49.3125 C 47.5 -51.6875 44.039062 -52.875 40.03125 -52.875 Z M 40.03125 -52.875 "/></g></g></g><g fill="#000000" fill-opacity="1"><g transform="translate(235.76749, 129.012453)"><g><path d="M 73.640625 -66.953125 C 75.003906 -66.953125 75.6875 -66.265625 75.6875 -64.890625 L 75.6875 -2.046875 C 75.6875 -0.679688 75.003906 0 73.640625 0 L 61.75 0 C 60.570312 0 59.890625 -0.679688 59.703125 -2.046875 L 58.890625 -8.609375 C 56.703125 -5.785156 53.921875 -3.484375 50.546875 -1.703125 C 47.179688 0.0664062 43.222656 0.953125 38.671875 0.953125 C 32.378906 0.953125 26.796875 -0.570312 21.921875 -3.625 C 17.054688 -6.675781 13.207031 -10.796875 10.375 -15.984375 C 7.550781 -21.171875 6.140625 -26.957031 6.140625 -33.34375 C 6.140625 -39.894531 7.550781 -45.8125 10.375 -51.09375 C 13.207031 -56.375 17.054688 -60.5625 21.921875 -63.65625 C 26.796875 -66.757812 32.378906 -68.3125 38.671875 -68.3125 C 43.222656 -68.3125 47.179688 -67.375 50.546875 -65.5 C 53.921875 -63.632812 56.742188 -61.15625 59.015625 -58.0625 L 59.703125 -64.890625 C 59.890625 -66.265625 60.570312 -66.953125 61.75 -66.953125 Z M 40.71875 -15.4375 C 45.8125 -15.4375 49.929688 -17.164062 53.078125 -20.625 C 56.222656 -24.09375 57.796875 -28.375 57.796875 -33.46875 C 57.796875 -36.84375 57.066406 -39.914062 55.609375 -42.6875 C 54.148438 -45.46875 52.144531 -47.703125 49.59375 -49.390625 C 47.039062 -51.078125 44.082031 -51.921875 40.71875 -51.921875 C 35.707031 -51.921875 31.582031 -50.1875 28.34375 -46.71875 C 25.113281 -43.257812 23.5 -38.84375 23.5 -33.46875 C 23.5 -28.28125 25.113281 -23.976562 28.34375 -20.5625 C 31.582031 -17.144531 35.707031 -15.4375 40.71875 -15.4375 Z M 40.71875 -15.4375 "/></g></g></g><g fill="#000000" fill-opacity="1"><g transform="translate(313.095152, 129.012453)"><g><path d="M 8.203125 -97.6875 C 8.203125 -99.050781 8.882812 -99.734375 10.25 -99.734375 L 24.1875 -99.734375 C 25.550781 -99.734375 26.234375 -99.050781 26.234375 -97.6875 L 26.234375 -2.046875 C 26.234375 -0.679688 25.550781 0 24.1875 0 L 10.25 0 C 8.882812 0 8.203125 -0.679688 8.203125 -2.046875 Z M 8.203125 -97.6875 "/></g></g></g><g fill="#000000" fill-opacity="1"><g transform="translate(341.102422, 129.012453)"><g><path d="M 16.125 1.78125 C 13.300781 1.78125 10.929688 0.820312 9.015625 -1.09375 C 7.097656 -3.007812 6.140625 -5.378906 6.140625 -8.203125 C 6.140625 -10.929688 7.097656 -13.25 9.015625 -15.15625 C 10.929688 -17.070312 13.300781 -18.03125 16.125 -18.03125 C 18.851562 -18.03125 21.171875 -17.070312 23.078125 -15.15625 C 24.992188 -13.25 25.953125 -10.929688 25.953125 -8.203125 C 25.953125 -5.378906 24.992188 -3.007812 23.078125 -1.09375 C 21.171875 0.820312 18.851562 1.78125 16.125 1.78125 Z M 16.125 1.78125 "/></g></g></g></svg>