<svg xmlns="http://www.w3.org/2000/svg" xmlns:xlink="http://www.w3.org/1999/xlink" width="100" zoomAndPan="magnify" viewBox="0 0 75 30.000001" height="40" preserveAspectRatio="xMidYMid meet" version="1.0"><defs><clipPath id="d8f8696468"><path d="M 25.160156 13 L 28 13 L 28 15 L 25.160156 15 Z M 25.160156 13 " clip-rule="nonzero"/></clipPath><clipPath id="54baef5ddc"><path d="M 44 12 L 49.839844 12 L 49.839844 19 L 44 19 Z M 44 12 " clip-rule="nonzero"/></clipPath></defs><path fill="#210f60" d="M 44.132812 12.164062 L 43.292969 12.648438 C 42.847656 12.308594 42.394531 12.148438 41.800781 12.148438 C 41.421875 12.148438 41.046875 12.234375 40.707031 12.402344 C 40.367188 12.570312 40.070312 12.8125 39.839844 13.113281 C 39.609375 13.410156 39.449219 13.761719 39.375 14.128906 C 39.300781 14.5 39.3125 14.882812 39.40625 15.25 C 39.503906 15.617188 39.683594 15.953125 39.929688 16.242188 C 40.179688 16.527344 40.488281 16.75 40.839844 16.898438 C 41.1875 17.046875 41.5625 17.109375 41.941406 17.089844 C 42.320312 17.066406 42.6875 16.957031 43.015625 16.773438 L 43.015625 17.027344 C 43.015625 17.046875 43.023438 17.0625 43.035156 17.074219 C 43.046875 17.085938 43.066406 17.09375 43.082031 17.09375 L 44.167969 17.09375 C 44.183594 17.09375 44.199219 17.085938 44.214844 17.074219 C 44.226562 17.0625 44.230469 17.046875 44.230469 17.027344 L 44.230469 12.21875 C 44.230469 12.207031 44.230469 12.199219 44.222656 12.1875 C 44.214844 12.175781 44.207031 12.167969 44.199219 12.164062 C 44.1875 12.160156 44.175781 12.15625 44.164062 12.15625 C 44.152344 12.15625 44.140625 12.160156 44.132812 12.167969 Z M 41.800781 15.925781 C 41.542969 15.925781 41.289062 15.851562 41.074219 15.707031 C 40.859375 15.5625 40.691406 15.359375 40.59375 15.121094 C 40.492188 14.882812 40.46875 14.621094 40.519531 14.367188 C 40.570312 14.113281 40.691406 13.878906 40.875 13.699219 C 41.058594 13.515625 41.292969 13.390625 41.542969 13.339844 C 41.796875 13.289062 42.058594 13.316406 42.300781 13.414062 C 42.539062 13.511719 42.742188 13.679688 42.886719 13.894531 C 43.027344 14.109375 43.105469 14.363281 43.105469 14.621094 C 43.105469 14.96875 42.96875 15.300781 42.722656 15.542969 C 42.476562 15.789062 42.144531 15.925781 41.800781 15.925781 Z M 41.800781 15.925781 " fill-opacity="1" fill-rule="nonzero"/><path fill="#1dcf9f" d="M 29.265625 10.453125 C 28.554688 10.449219 27.863281 10.671875 27.289062 11.089844 C 26.71875 11.507812 26.296875 12.097656 26.085938 12.773438 C 26.082031 12.78125 26.082031 12.792969 26.082031 12.800781 C 26.085938 12.8125 26.085938 12.820312 26.09375 12.828125 C 26.097656 12.835938 26.105469 12.839844 26.117188 12.847656 C 26.125 12.851562 26.132812 12.851562 26.144531 12.851562 L 27.421875 12.851562 C 27.429688 12.851562 27.441406 12.851562 27.453125 12.84375 C 27.460938 12.839844 27.46875 12.828125 27.476562 12.820312 C 27.652344 12.488281 27.917969 12.214844 28.238281 12.027344 C 28.5625 11.839844 28.933594 11.746094 29.308594 11.753906 C 30.386719 11.773438 31.222656 12.65625 31.261719 13.675781 C 31.28125 14.128906 31.144531 14.574219 30.871094 14.9375 C 30.601562 15.304688 30.214844 15.566406 29.773438 15.683594 C 29.335938 15.800781 28.867188 15.765625 28.449219 15.585938 C 28.03125 15.402344 27.6875 15.085938 27.476562 14.6875 C 27.46875 14.675781 27.460938 14.667969 27.453125 14.664062 C 27.441406 14.65625 27.433594 14.652344 27.421875 14.652344 L 26.144531 14.652344 C 26.132812 14.652344 26.125 14.65625 26.117188 14.660156 C 26.105469 14.664062 26.097656 14.671875 26.09375 14.679688 C 26.085938 14.6875 26.085938 14.695312 26.082031 14.703125 C 26.082031 14.714844 26.082031 14.722656 26.085938 14.734375 C 26.265625 15.316406 26.605469 15.835938 27.070312 16.238281 C 27.53125 16.640625 28.09375 16.90625 28.699219 17.007812 C 29.304688 17.109375 29.925781 17.042969 30.496094 16.816406 C 31.0625 16.585938 31.558594 16.207031 31.921875 15.714844 C 32.285156 15.226562 32.507812 14.644531 32.558594 14.035156 C 32.613281 13.429688 32.496094 12.816406 32.21875 12.273438 C 31.945312 11.726562 31.523438 11.269531 31 10.945312 C 30.480469 10.625 29.878906 10.453125 29.265625 10.453125 " fill-opacity="1" fill-rule="nonzero"/><g clip-path="url(#d8f8696468)"><path fill="#210f60" d="M 27.375 14.375 L 25.808594 14.375 C 25.800781 14.375 25.789062 14.375 25.78125 14.371094 C 25.773438 14.367188 25.765625 14.363281 25.761719 14.355469 C 25.753906 14.351562 25.75 14.34375 25.746094 14.332031 C 25.742188 14.324219 25.742188 14.316406 25.742188 14.308594 L 25.742188 13.234375 C 25.742188 13.226562 25.742188 13.21875 25.746094 13.210938 C 25.75 13.203125 25.753906 13.195312 25.761719 13.1875 C 25.765625 13.183594 25.773438 13.175781 25.78125 13.171875 C 25.789062 13.171875 25.800781 13.167969 25.808594 13.167969 L 27.375 13.167969 C 27.382812 13.167969 27.390625 13.171875 27.398438 13.171875 C 27.40625 13.175781 27.414062 13.183594 27.421875 13.1875 C 27.425781 13.195312 27.433594 13.203125 27.433594 13.210938 C 27.4375 13.21875 27.441406 13.226562 27.441406 13.234375 L 27.441406 14.308594 C 27.441406 14.316406 27.4375 14.324219 27.433594 14.332031 C 27.433594 14.34375 27.425781 14.351562 27.421875 14.355469 C 27.414062 14.363281 27.40625 14.367188 27.398438 14.371094 C 27.390625 14.375 27.382812 14.375 27.375 14.375 " fill-opacity="1" fill-rule="evenodd"/></g><path fill="#210f60" d="M 38.761719 13.234375 C 38.761719 11.945312 37.726562 10.851562 36.441406 10.828125 L 34.027344 10.828125 C 34.011719 10.828125 33.996094 10.835938 33.984375 10.847656 C 33.976562 10.859375 33.96875 10.875 33.96875 10.890625 L 33.96875 16.996094 C 33.96875 17.011719 33.976562 17.027344 33.984375 17.039062 C 33.996094 17.050781 34.011719 17.054688 34.027344 17.054688 L 35.117188 17.054688 C 35.132812 17.054688 35.148438 17.050781 35.160156 17.039062 C 35.171875 17.027344 35.175781 17.011719 35.175781 16.996094 L 35.175781 15.691406 L 36.421875 15.691406 C 37.71875 15.679688 38.761719 14.707031 38.761719 13.238281 Z M 36.398438 14.484375 L 35.175781 14.484375 L 35.175781 12.039062 L 36.398438 12.039062 C 37.035156 12.039062 37.550781 12.601562 37.550781 13.238281 C 37.550781 14.027344 37.035156 14.484375 36.398438 14.484375 " fill-opacity="1" fill-rule="nonzero"/><g clip-path="url(#54baef5ddc)"><path fill="#210f60" d="M 49.679688 12.148438 L 48.570312 12.148438 C 48.542969 12.148438 48.511719 12.160156 48.484375 12.175781 C 48.460938 12.191406 48.441406 12.214844 48.429688 12.242188 L 47.246094 14.976562 L 46.082031 12.242188 C 46.070312 12.214844 46.050781 12.191406 46.027344 12.175781 C 46 12.160156 45.972656 12.148438 45.941406 12.148438 L 44.820312 12.15625 C 44.808594 12.15625 44.800781 12.15625 44.792969 12.164062 C 44.78125 12.167969 44.773438 12.175781 44.769531 12.183594 C 44.765625 12.191406 44.761719 12.199219 44.761719 12.210938 C 44.761719 12.21875 44.761719 12.230469 44.765625 12.238281 L 46.59375 16.535156 L 45.835938 18.292969 C 45.832031 18.300781 45.832031 18.3125 45.832031 18.320312 C 45.832031 18.332031 45.835938 18.339844 45.839844 18.347656 C 45.847656 18.355469 45.855469 18.363281 45.863281 18.367188 C 45.871094 18.375 45.882812 18.375 45.890625 18.375 L 47 18.375 C 47.03125 18.375 47.0625 18.367188 47.085938 18.351562 C 47.113281 18.332031 47.132812 18.308594 47.144531 18.28125 L 49.738281 12.234375 C 49.742188 12.222656 49.742188 12.214844 49.742188 12.203125 C 49.742188 12.195312 49.738281 12.183594 49.730469 12.175781 C 49.726562 12.167969 49.71875 12.160156 49.710938 12.15625 C 49.703125 12.152344 49.691406 12.148438 49.679688 12.148438 Z M 49.679688 12.148438 " fill-opacity="1" fill-rule="nonzero"/></g></svg>