<svg id="wave" style="transform:rotate(180deg); transition: 0.3s" viewBox="0 0 1440 300" version="1.1" xmlns="http://www.w3.org/2000/svg"><defs><linearGradient id="sw-gradient-0" x1="0" x2="0" y1="1" y2="0"><stop stop-color="#171717" offset="0%"></stop><stop stop-color="#171717" offset="100%"></stop></linearGradient></defs><path style="transform:translate(0, 10px); opacity:1" fill="url(#sw-gradient-0)" d="M0,120L24,110C48,100,96,80,144,80C192,80,240,100,288,100C336,100,384,80,432,60C480,40,528,20,576,15C624,10,672,20,720,45C768,70,816,110,864,115C912,120,960,90,1008,110C1056,130,1104,200,1152,225C1200,250,1248,230,1296,195C1344,160,1392,110,1440,85C1488,60,1536,60,1584,70C1632,80,1680,100,1728,95C1776,90,1824,60,1872,75C1920,90,1968,150,2016,145C2064,140,2112,70,2160,75C2208,80,2256,160,2304,165C2352,170,2400,100,2448,75C2496,50,2544,70,2592,110C2640,150,2688,210,2736,230C2784,250,2832,230,2880,225C2928,220,2976,230,3024,215C3072,200,3120,160,3168,125C3216,90,3264,60,3312,45C3360,30,3408,30,3432,30L3456,30L3456,300L3432,300C3408,300,3360,300,3312,300C3264,300,3216,300,3168,300C3120,300,3072,300,3024,300C2976,300,2928,300,2880,300C2832,300,2784,300,2736,300C2688,300,2640,300,2592,300C2544,300,2496,300,2448,300C2400,300,2352,300,2304,300C2256,300,2208,300,2160,300C2112,300,2064,300,2016,300C1968,300,1920,300,1872,300C1824,300,1776,300,1728,300C1680,300,1632,300,1584,300C1536,300,1488,300,1440,300C1392,300,1344,300,1296,300C1248,300,1200,300,1152,300C1104,300,1056,300,1008,300C960,300,912,300,864,300C816,300,768,300,720,300C672,300,624,300,576,300C528,300,480,300,432,300C384,300,336,300,288,300C240,300,192,300,144,300C96,300,48,300,24,300L0,300Z"></path></svg>