<svg xmlns="http://www.w3.org/2000/svg" xmlns:xlink="http://www.w3.org/1999/xlink" width="162" zoomAndPan="magnify" viewBox="70 50 300 70" height="50" preserveAspectRatio="xMidYMid meet" version="1.0"><defs><g/></defs><g fill="#00592e" fill-opacity="1"><g transform="translate(71.214792, 104.035105)"><g><path d="M 56.203125 -63.765625 C 57.117188 -63.765625 57.578125 -63.3125 57.578125 -62.40625 L 57.578125 -1.359375 C 57.578125 -0.453125 57.117188 0 56.203125 0 L 45 0 C 44.269531 0 43.722656 -0.300781 43.359375 -0.90625 L 18.859375 -44.1875 L 18.859375 -1.359375 C 18.859375 -0.453125 18.398438 0 17.484375 0 L 7.75 0 C 6.832031 0 6.375 -0.453125 6.375 -1.359375 L 6.375 -62.40625 C 6.375 -63.3125 6.832031 -63.765625 7.75 -63.765625 L 18.953125 -63.765625 C 19.679688 -63.765625 20.226562 -63.460938 20.59375 -62.859375 L 45.09375 -19.578125 L 45.09375 -62.40625 C 45.09375 -63.3125 45.546875 -63.765625 46.453125 -63.765625 Z M 56.203125 -63.765625 "/></g></g></g><g fill="#000000" fill-opacity="1"><g transform="translate(127.237887, 104.035105)"><g><path d="M 49.09375 -66.5 C 50.007812 -66.5 50.46875 -66.039062 50.46875 -65.125 L 50.46875 -1.359375 C 50.46875 -0.453125 50.007812 0 49.09375 0 L 41.171875 0 C 40.378906 0 39.925781 -0.453125 39.8125 -1.359375 L 39.265625 -5.734375 C 37.804688 -3.859375 35.953125 -2.328125 33.703125 -1.140625 C 31.453125 0.046875 28.8125 0.640625 25.78125 0.640625 C 21.59375 0.640625 17.875 -0.375 14.625 -2.40625 C 11.375 -4.445312 8.804688 -7.195312 6.921875 -10.65625 C 5.035156 -14.113281 4.09375 -17.972656 4.09375 -22.234375 C 4.09375 -26.597656 5.035156 -30.539062 6.921875 -34.0625 C 8.804688 -37.59375 11.375 -40.390625 14.625 -42.453125 C 17.875 -44.515625 21.59375 -45.546875 25.78125 -45.546875 C 28.507812 -45.546875 30.921875 -45.03125 33.015625 -44 C 35.117188 -42.96875 36.925781 -41.570312 38.4375 -39.8125 L 38.4375 -65.125 C 38.4375 -66.039062 38.894531 -66.5 39.8125 -66.5 Z M 27.140625 -10.296875 C 30.546875 -10.296875 33.296875 -11.445312 35.390625 -13.75 C 37.484375 -16.0625 38.53125 -18.914062 38.53125 -22.3125 C 38.53125 -24.5625 38.046875 -26.613281 37.078125 -28.46875 C 36.109375 -30.320312 34.769531 -31.804688 33.0625 -32.921875 C 31.363281 -34.046875 29.390625 -34.609375 27.140625 -34.609375 C 23.804688 -34.609375 21.0625 -33.453125 18.90625 -31.140625 C 16.75 -28.835938 15.671875 -25.894531 15.671875 -22.3125 C 15.671875 -18.851562 16.75 -15.984375 18.90625 -13.703125 C 21.0625 -11.429688 23.804688 -10.296875 27.140625 -10.296875 Z M 27.140625 -10.296875 "/></g></g></g><g fill="#000000" fill-opacity="1"><g transform="translate(175.244589, 104.035105)"><g><path d="M 47.828125 -23.5 C 47.828125 -21.738281 47.644531 -20.398438 47.28125 -19.484375 C 46.914062 -18.578125 46.035156 -18.125 44.640625 -18.125 L 16.03125 -18.125 C 16.695312 -15.269531 18.125 -13.050781 20.3125 -11.46875 C 22.5 -9.894531 25.320312 -9.109375 28.78125 -9.109375 C 32.1875 -9.109375 35.347656 -10.140625 38.265625 -12.203125 C 39.046875 -12.691406 39.710938 -12.660156 40.265625 -12.109375 L 44.265625 -8.203125 C 44.941406 -7.585938 44.914062 -6.914062 44.1875 -6.1875 C 42.0625 -4.0625 39.566406 -2.390625 36.703125 -1.171875 C 33.847656 0.0351562 30.8125 0.640625 27.59375 0.640625 C 22.976562 0.640625 18.894531 -0.390625 15.34375 -2.453125 C 11.789062 -4.523438 9.023438 -7.320312 7.046875 -10.84375 C 5.078125 -14.363281 4.09375 -18.25 4.09375 -22.5 C 4.09375 -26.8125 5.0625 -30.695312 7 -34.15625 C 8.945312 -37.625 11.617188 -40.390625 15.015625 -42.453125 C 18.421875 -44.515625 22.28125 -45.546875 26.59375 -45.546875 C 30.90625 -45.546875 34.65625 -44.523438 37.84375 -42.484375 C 41.03125 -40.453125 43.488281 -37.765625 45.21875 -34.421875 C 46.957031 -31.085938 47.828125 -27.445312 47.828125 -23.5 Z M 26.6875 -35.25 C 23.957031 -35.25 21.601562 -34.457031 19.625 -32.875 C 17.65625 -31.300781 16.394531 -29 15.84375 -25.96875 L 37.171875 -25.96875 C 36.742188 -29 35.554688 -31.300781 33.609375 -32.875 C 31.671875 -34.457031 29.363281 -35.25 26.6875 -35.25 Z M 26.6875 -35.25 "/></g></g></g><g fill="#000000" fill-opacity="1"><g transform="translate(219.243094, 104.035105)"><g><path d="M 49.09375 -44.640625 C 50.007812 -44.640625 50.46875 -44.179688 50.46875 -43.265625 L 50.46875 -1.359375 C 50.46875 -0.453125 50.007812 0 49.09375 0 L 41.171875 0 C 40.378906 0 39.925781 -0.453125 39.8125 -1.359375 L 39.265625 -5.734375 C 37.804688 -3.859375 35.953125 -2.328125 33.703125 -1.140625 C 31.453125 0.046875 28.8125 0.640625 25.78125 0.640625 C 21.59375 0.640625 17.875 -0.375 14.625 -2.40625 C 11.375 -4.445312 8.804688 -7.195312 6.921875 -10.65625 C 5.035156 -14.113281 4.09375 -17.972656 4.09375 -22.234375 C 4.09375 -26.597656 5.035156 -30.539062 6.921875 -34.0625 C 8.804688 -37.59375 11.375 -40.390625 14.625 -42.453125 C 17.875 -44.515625 21.59375 -45.546875 25.78125 -45.546875 C 28.8125 -45.546875 31.453125 -44.921875 33.703125 -43.671875 C 35.953125 -42.429688 37.835938 -40.78125 39.359375 -38.71875 L 39.8125 -43.265625 C 39.925781 -44.179688 40.378906 -44.640625 41.171875 -44.640625 Z M 27.140625 -10.296875 C 30.546875 -10.296875 33.296875 -11.445312 35.390625 -13.75 C 37.484375 -16.0625 38.53125 -18.914062 38.53125 -22.3125 C 38.53125 -24.5625 38.046875 -26.613281 37.078125 -28.46875 C 36.109375 -30.320312 34.769531 -31.804688 33.0625 -32.921875 C 31.363281 -34.046875 29.390625 -34.609375 27.140625 -34.609375 C 23.804688 -34.609375 21.0625 -33.453125 18.90625 -31.140625 C 16.75 -28.835938 15.671875 -25.894531 15.671875 -22.3125 C 15.671875 -18.851562 16.75 -15.984375 18.90625 -13.703125 C 21.0625 -11.429688 23.804688 -10.296875 27.140625 -10.296875 Z M 27.140625 -10.296875 "/></g></g></g><g fill="#000000" fill-opacity="1"><g transform="translate(267.249796, 104.035105)"><g><path d="M 5.46875 -65.125 C 5.46875 -66.039062 5.921875 -66.5 6.828125 -66.5 L 16.125 -66.5 C 17.03125 -66.5 17.484375 -66.039062 17.484375 -65.125 L 17.484375 -1.359375 C 17.484375 -0.453125 17.03125 0 16.125 0 L 6.828125 0 C 5.921875 0 5.46875 -0.453125 5.46875 -1.359375 Z M 5.46875 -65.125 "/></g></g></g><g fill="#000000" fill-opacity="1"><g transform="translate(282.371083, 104.035105)"><g><path d="M 10.75 1.1875 C 8.863281 1.1875 7.28125 0.550781 6 -0.71875 C 4.726562 -2 4.09375 -3.582031 4.09375 -5.46875 C 4.09375 -7.289062 4.726562 -8.835938 6 -10.109375 C 7.28125 -11.390625 8.863281 -12.03125 10.75 -12.03125 C 12.570312 -12.03125 14.117188 -11.390625 15.390625 -10.109375 C 16.671875 -8.835938 17.3125 -7.289062 17.3125 -5.46875 C 17.3125 -3.582031 16.671875 -2 15.390625 -0.71875 C 14.117188 0.550781 12.570312 1.1875 10.75 1.1875 Z M 10.75 1.1875 "/></g></g></g></svg>